<?xml version="1.0" encoding="utf-8"?>
<!-- Generator: Adobe Illustrator 21.1.0, SVG Export Plug-In . SVG Version: 6.00 Build 0)  -->
<svg version="1.1" xmlns="http://www.w3.org/2000/svg" xmlns:xlink="http://www.w3.org/1999/xlink" x="0px" y="0px"
	 viewBox="0 0 65 65" style="enable-background:new 0 0 65 65;" xml:space="preserve">
<style type="text/css">
	.st0{display:none;}
	.st1{display:inline;}
	.st2{fill:#FFFFFF;}
	.st3{display:inline;fill:#FFFFFF;}
</style>
<g id="圖層_1" class="st0">
	<g class="st1">
		<path class="st2" d="M61.5,30.4c1.4-1.4,1.9-3.4,1.2-5.3v0c-0.6-1.9-2.2-3.2-4.2-3.5l-13.3-1.9c-1-0.1-1.9-0.7-2.5-1.7L36.9,5.9
			C36,4.1,34.3,3,32.4,3c-2,0-3.8,1.1-4.6,2.8l-3.1,6.3c-0.1,0.2-0.1,0.3,0,0.4c0,0.1,0.1,0.2,0.2,0.3c0.3,0.1,0.5,0,0.7-0.2
			l3.1-6.3C29.4,4.8,30.8,4,32.4,4c1.7,0,3.1,0.9,3.8,2.4l5.9,12c0.6,1.3,1.8,2.1,3.2,2.3l13.3,1.9c1.6,0.2,2.8,1.3,3.3,2.8
			c0.5,1.6,0.1,3.3-1.1,4.4L51.2,39c-1,1-1.5,2.4-1.2,3.7c0,0.1,0.1,0.5,0.5,0.5h0.1c0.1,0,0.2-0.1,0.2-0.2c0-0.1,0.1-0.2,0.1-0.4
			c-0.1-1.2,0.2-2.2,1-2.9L61.5,30.4z"/>
		<path class="st2" d="M53.1,55.8L52,49.4c0-0.2-0.1-0.3-0.2-0.3c-0.1,0-0.2-0.1-0.4-0.1c-0.2,0-0.3,0.1-0.3,0.2
			c0,0.1-0.1,0.2-0.1,0.4l1.1,6.4c0.2,1.6-0.4,3.1-1.7,4.1c-1.3,1-2.9,1.1-4.4,0.4l-11.7-6.2c-1.3-0.7-2.7-0.7-3.9,0l-12,6.3
			c-1.5,0.7-3.1,0.6-4.4-0.4c-1.3-1-2-2.5-1.7-4.1l2.3-13.2c0.3-1.4-0.2-2.8-1.2-3.7l-9.6-9.5c-1.2-1.2-1.6-2.8-1.1-4.3
			c0.5-1.6,1.7-2.6,3.3-2.9l13.3-1.9c1.4-0.2,2.6-1.1,3.2-2.3c0.1-0.3,0-0.6-0.2-0.7c-0.1,0-0.2-0.1-0.2-0.1c-0.1,0-0.1,0-0.2,0
			c-0.1,0-0.2,0.1-0.3,0.3c-0.4,0.9-1.4,1.7-2.5,1.8L6,21.6c-2,0.3-3.6,1.6-4.2,3.5C1.2,27,1.7,29,3.2,30.4l9.6,9.4
			c0.7,0.6,1.1,1.7,1,2.9l-2.3,13.2c-0.4,2,0.4,3.9,2,5c1.7,1.2,3.9,1.3,5.3,0.4L30.7,55c0.9-0.5,2.1-0.5,3.1,0l11.8,6.2
			c1.8,0.9,3.8,0.8,5.4-0.4C52.7,59.6,53.5,57.7,53.1,55.8z"/>
	</g>
</g>
<g id="圖層_4">
	<path class="st2" d="M2.1,19.2v37.1c0,1.2,1.2,2,2.4,1.6l14.8-6.7V10l-15,6C3,16.5,2.1,17.8,2.1,19.2z M22.7,51.1L43.3,58V16.9
		L22.7,10V51.1z M61.5,10.1l-14.8,6.7V58l15-6c1.3-0.5,2.2-1.8,2.2-3.2V11.7C63.9,10.5,62.6,9.7,61.5,10.1z"/>
</g>
<g id="圖層_5" class="st0">
	<path class="st3" d="M62.3,17.8c0.3,0,0.5-0.2,0.5-0.5V5.9c0-0.3-0.2-0.5-0.5-0.5c-0.3,0-0.5,0.2-0.5,0.5v9.6l-4-3.6
		c-6.1-5.5-13.9-8.5-21.9-8.5C17.1,3.5,1.9,19.4,1.9,39c0,0.3,0.2,0.5,0.5,0.5c0.3,0,0.5-0.2,0.5-0.5c0-9.5,3.6-18.4,10.1-25
		c6.2-6.2,14.3-9.6,22.8-9.6c7.9,0,15.3,2.8,21.3,8.2l4.8,4.2h-11c-0.3,0-0.5,0.2-0.5,0.5c0,0.3,0.2,0.5,0.5,0.5H62.3z"/>
	<g class="st1">
		<path class="st2" d="M46.3,61.9h-28c-2.4,0-4.4-2-4.4-4.4V36.6c0-2.4,2-4.4,4.4-4.4h28c2.4,0,4.4,2,4.4,4.4v20.9
			C50.7,59.9,48.7,61.9,46.3,61.9z M18.3,33.2c-1.8,0-3.4,1.5-3.4,3.4v20.9c0,1.8,1.5,3.4,3.4,3.4h28c1.8,0,3.4-1.5,3.4-3.4V36.6
			c0-1.8-1.5-3.4-3.4-3.4H18.3z"/>
	</g>
</g>
<g id="圖層_6" class="st0">
	<path class="st3" d="M61.9,0.3c-4.8,1.4-14,4.3-23.5,7.7c-0.3-0.9-0.5-1.7-0.7-2.3c-0.4-1.2-1.7-1.8-2.9-1.2
		C29.6,7.2,15.8,14.8,8.1,22.3c-0.1,0.1-0.3,0.2-0.4,0.4c-4.8,4.7-7.1,11-7.1,17.2c0,6.2,2.4,12.5,7.1,17.2c4.7,4.7,11,7.1,17.2,7.1
		c6.2,0,12.5-2.4,17.2-7.1c0.1-0.1,0.2-0.3,0.4-0.4c7.5-7.7,15-21.5,17.8-26.8c0.6-1.1,0-2.5-1.2-2.9c-0.6-0.2-1.4-0.4-2.3-0.7
		c3.4-9.5,6.2-18.6,7.7-23.5C64.9,1.3,63.4-0.2,61.9,0.3z M24.5,56.2c-8.8,0-16-7.2-16-16s7.2-16,16-16s16,7.2,16,16
		S33.3,56.2,24.5,56.2z M20.5,32.2c-2.2,0-4,1.8-4,4s1.8,4,4,4s4-1.8,4-4S22.7,32.2,20.5,32.2z M26.5,44.2c-1.1,0-2,0.9-2,2
		s0.9,2,2,2c1.1,0,2-0.9,2-2S27.6,44.2,26.5,44.2z"/>
</g>
<g id="圖層_2" class="st0">
	<path class="st3" d="M47.5,32.5c0-0.4-0.3-0.8-0.8-0.8H33.3V18.2c0-0.4-0.3-0.8-0.8-0.8s-0.8,0.3-0.8,0.8v13.5H18.2
		c-0.4,0-0.8,0.3-0.8,0.8s0.3,0.8,0.8,0.8h13.5v13.5c0,0.4,0.3,0.8,0.8,0.8s0.8-0.3,0.8-0.8V33.3h13.5
		C47.2,33.3,47.5,32.9,47.5,32.5z"/>
</g>
</svg>
