<?xml version="1.0" encoding="utf-8"?>
<!-- Generator: Adobe Illustrator 21.1.0, SVG Export Plug-In . SVG Version: 6.00 Build 0)  -->
<svg version="1.1" id="圖層_6" xmlns="http://www.w3.org/2000/svg" xmlns:xlink="http://www.w3.org/1999/xlink" x="0px" y="0px"
	 viewBox="0 0 65 65" style="enable-background:new 0 0 65 65;" xml:space="preserve">
<style type="text/css">
	.st0{fill:#FFFFFF;}
</style>
<path class="st0" d="M61.9,0.3c-4.8,1.4-14,4.3-23.5,7.7c-0.3-0.9-0.5-1.7-0.7-2.3c-0.4-1.2-1.7-1.8-2.9-1.2
	C29.6,7.2,15.8,14.8,8.1,22.3c-0.1,0.1-0.3,0.2-0.4,0.4c-4.8,4.7-7.1,11-7.1,17.2c0,6.2,2.4,12.5,7.1,17.2c4.7,4.7,11,7.1,17.2,7.1
	c6.2,0,12.5-2.4,17.2-7.1c0.1-0.1,0.2-0.3,0.4-0.4c7.5-7.7,15-21.5,17.8-26.8c0.6-1.1,0-2.5-1.2-2.9c-0.6-0.2-1.4-0.4-2.3-0.7
	c3.4-9.5,6.2-18.6,7.7-23.5C64.9,1.3,63.4-0.2,61.9,0.3z M24.5,56.2c-8.8,0-16-7.2-16-16s7.2-16,16-16s16,7.2,16,16
	S33.3,56.2,24.5,56.2z M20.5,32.2c-2.2,0-4,1.8-4,4s1.8,4,4,4s4-1.8,4-4S22.7,32.2,20.5,32.2z M26.5,44.2c-1.1,0-2,0.9-2,2
	s0.9,2,2,2c1.1,0,2-0.9,2-2S27.6,44.2,26.5,44.2z"/>
</svg>
