<?xml version="1.0" encoding="utf-8"?>
<!-- Generator: Adobe Illustrator 21.1.0, SVG Export Plug-In . SVG Version: 6.00 Build 0)  -->
<svg version="1.1" id="Layer_1" xmlns="http://www.w3.org/2000/svg" xmlns:xlink="http://www.w3.org/1999/xlink" x="0px" y="0px"
	 viewBox="0 0 504.1 504.1" style="enable-background:new 0 0 504.1 504.1;" xml:space="preserve">
<style type="text/css">
	.st0{fill:#CCD0D2;}
	.st1{fill:#BF392B;}
	.st2{fill:#E2574C;}
	.st3{fill:#C64D41;}
	.st4{fill:#E5685E;}
	.st5{fill:#AC3327;}
	.st6{fill:#EFEFEF;}
</style>
<path class="st0" d="M252.1,137.8c-63,0-114.2,51.2-114.2,114.2S189,366.3,252.1,366.3s114.2-51.2,114.2-114.2
	S315.1,137.8,252.1,137.8z M252.1,350.5c-54.4,0-98.5-44.1-98.5-98.5s44.1-98.5,98.5-98.5s98.5,44.1,98.5,98.5
	S306.4,350.5,252.1,350.5z"/>
<path class="st1" d="M389.5,114.6c8.7,8.7-96.1,161.1-105.2,169.7c-8.7,8.7-161.1,113.8-170.1,105.2
	c-8.7-8.7,96.5-161.5,105.2-169.7C228,211.1,380.5,105.6,389.5,114.6z"/>
<path class="st2" d="M286.7,282.4c16.9-21.3,111.5-159.1,102.8-167.4c-9.1-9.1-154,91-169,104L286.7,282.4z"/>
<path class="st3" d="M219.8,219.8c-8.3,8.3-111.9,157.9-105.2,169.4l274.5-274.5C376.5,108.3,228,211.5,219.8,219.8z"/>
<path class="st4" d="M220.6,219l32.7,31.5l135.9-135.9C376.9,108.3,235.5,206.4,220.6,219z"/>
<path class="st5" d="M248.1,236.3c11,0,19.7,8.7,19.7,19.7c0,11-8.7,19.7-19.7,19.7s-19.7-8.7-19.7-19.7
	C228.4,245,237.1,236.3,248.1,236.3z"/>
<path class="st1" d="M248.1,236.3c-11,0-19.7,8.7-19.7,19.7c0,5.1,2,10.2,5.5,13.8l28-28C258.4,238.3,253.2,236.3,248.1,236.3z"/>
<path class="st6" d="M252.1,232.4c11,0,19.7,8.7,19.7,19.7c0,11-8.7,19.7-19.7,19.7c-11,0-19.7-8.7-19.7-19.7
	C232.4,241,241,232.4,252.1,232.4z"/>
</svg>
