<?xml version="1.0" encoding="utf-8"?>
<!-- Generator: Adobe Illustrator 21.1.0, SVG Export Plug-In . SVG Version: 6.00 Build 0)  -->
<svg version="1.1" id="圖層_1" xmlns="http://www.w3.org/2000/svg" xmlns:xlink="http://www.w3.org/1999/xlink" x="0px" y="0px"
	 viewBox="0 0 139 139" style="enable-background:new 0 0 139 139;" xml:space="preserve">
<style type="text/css">
	.st0{fill:#FFFFFF;}
	.st1{fill:#F3986F;}
</style>
<g id="圖層_1_1_">
</g>
<title>アセット 7</title>
<g>
	<circle class="st0" cx="69.5" cy="69.5" r="69.5"/>
	<polygon class="st0" points="121,103 135,139 101,121 	"/>
	<g>
		<path class="st1" d="M66.1,25c1,0,1.5,0.5,1.5,1.4c0,1-0.5,1.6-1.5,1.6H43.7c-1.4,2-2.9,3.8-4.6,5.3c-0.1,0.1-0.1,0.1-0.1,0.1
			h22.4c2.2,0,3.3,1.1,3.3,3.2v21.4c0,2.9-2.2,4.3-6.5,4.3c-1.9,0-4.1-0.3-6.6-0.9c-0.7-0.3-1-0.7-1-1.4c0-1.3,0.4-1.9,1.2-1.9
			c0.4,0,0.9,0.1,1.4,0.2c2,0.5,3.5,0.7,4.6,0.7c2.4,0,3.5-0.6,3.5-1.9v-5.2H37.4v9.3c0,1.1-0.6,1.6-1.8,1.6c-1.1,0-1.6-0.5-1.6-1.6
			V37.3c-1.6,1-3.3,2-5.1,2.9c-0.5,0.2-0.9,0.3-1.2,0.3c-1.1,0-1.6-0.6-1.6-1.8c0-0.4,0.3-0.9,0.8-1.2c4.8-2.3,8.3-4.7,10.7-7.2
			c0.7-0.7,1.4-1.4,2-2.3H28.2c-0.9,0-1.4-0.5-1.4-1.6c0-1,0.5-1.4,1.4-1.4h13.5c0.6-0.9,1.2-1.9,1.7-2.9c0.4-0.4,0.8-0.7,1.3-0.7
			c1.2,0,1.8,0.5,1.8,1.6c0,0.3-0.1,0.7-0.4,1c-0.2,0.3-0.4,0.6-0.5,0.9H66.1z M37.4,41.5h23.9v-3.8c0-0.8-0.3-1.3-0.9-1.3H38.1
			c-0.4,0-0.7,0.4-0.7,1.3V41.5z M37.4,49.1h23.9v-4.8H37.4V49.1z"/>
		<path class="st1" d="M89.1,27.1c0.9,0,1.4,0.5,1.4,1.4c0,1.1-0.5,1.6-1.4,1.6h-5.7v1.5l6,6.7c0.4,0.4,0.6,0.8,0.6,1.1
			c0,1.1-0.5,1.6-1.6,1.6c-0.7,0-1.2-0.3-1.5-0.8l-3.5-4.8v9.3c0,1.1-0.5,1.6-1.6,1.6c-1,0-1.5-0.5-1.5-1.6V34.5
			c-0.2,0.2-0.3,0.5-0.4,0.7c-1.1,1.7-2,3.1-2.9,4c-1,1.4-1.9,2.3-2.7,3c-0.3,0.3-0.7,0.5-1.2,0.5c-1,0-1.5-0.4-1.5-1.2
			c0-0.4,0.1-0.7,0.4-1.1c2.6-2.6,4.4-4.7,5.5-6.4c0.8-1.1,1.5-2.4,2.1-3.9h-5.7c-0.9,0-1.4-0.5-1.4-1.6c0-0.9,0.5-1.4,1.4-1.4h6.4
			v-3.6c0-1.1,0.5-1.6,1.5-1.6c1.1,0,1.6,0.5,1.6,1.6v3.6H89.1z M77.1,48.9c0.4,0,0.8,0.1,1.2,0.4c0.4,0.3,0.6,0.7,0.6,1.2
			c0,0.2-0.1,0.5-0.2,0.9c-0.5,1.9-1,3.6-1.7,5c-0.6,1.4-1.4,2.6-2.2,3.8c-0.6,0.5-1,0.8-1.3,0.8c-1.3,0-1.9-0.5-1.9-1.6
			c0-0.4,0.1-0.8,0.4-1.1c0.9-1,1.6-2.2,2.2-3.5c0.7-1.4,1.2-3,1.7-4.8C76,49.2,76.4,48.9,77.1,48.9z M84,47.7c1,0,1.5,0.5,1.5,1.6
			v7.2c0,1.2,0.4,1.9,1.3,2.2c1.2,0.3,3.5,0.5,6.7,0.5c2.7,0,4.6-0.1,5.8-0.3c0.7-0.1,1.1-0.4,1.3-0.9c0.4-0.4,0.5-1.8,0.5-4.3
			c0-1,0.6-1.6,1.6-1.6c1,0.1,1.5,0.7,1.5,1.9c0,1.2-0.1,2.5-0.3,3.7c-0.2,1.7-0.9,2.9-2,3.5c-0.9,0.6-3.4,0.9-7.4,0.9
			c-5,0-8.3-0.3-9.8-0.8c-1.6-0.8-2.4-2.2-2.4-4.3v-7.8C82.4,48.2,83,47.7,84,47.7z M91.8,47.1c0.4,0,0.8,0.2,1.2,0.7
			c1.1,1.9,2,4,2.7,6.3c0.1,0.4,0.2,0.8,0.2,1.1c0,0.9-0.6,1.4-1.8,1.4c-0.6,0-1-0.4-1.3-1.1c-0.7-2.6-1.5-4.6-2.3-6.2
			c-0.2-0.5-0.3-0.8-0.3-1.1C90.2,47.5,90.7,47.1,91.8,47.1z M94.2,23.2h14.4c1.7,0,2.5,0.8,2.5,2.3v18.5c0,1.5-0.8,2.3-2.5,2.3
			H94.2c-1.5,0-2.3-0.8-2.3-2.3V25.5C91.9,24,92.7,23.2,94.2,23.2z M95,29.9h13.1v-2.8c0-0.7-0.3-1.1-1-1.1H95.9
			c-0.6,0-0.9,0.4-0.9,1.1V29.9z M95,36.5h13.1v-3.9H95V36.5z M107.1,43.4c0.7,0,1-0.4,1-1.1v-3.2H95v3.2c0,0.7,0.3,1.1,0.9,1.1
			H107.1z M106.9,49.3c0.5,0,0.9,0.3,1.4,0.8c1.8,2.4,3.3,5.1,4.5,8.1c0.1,0.5,0.2,0.9,0.2,1.2c0,1-0.7,1.5-1.9,1.5
			c-0.6,0-1-0.4-1.3-1.3c-1.3-3.3-2.7-6-4.2-7.9c-0.2-0.4-0.4-0.8-0.4-1.1C105.1,49.7,105.7,49.3,106.9,49.3z"/>
		<path class="st1" d="M28.5,88c0.3,0,0.7,0.2,1.1,0.6c2.3,1.5,4.5,3.3,6.5,5.3c0.2,0.4,0.4,0.8,0.4,1.1c0,1.1-0.6,1.6-1.7,1.6
			c-0.4,0-0.7-0.1-1.1-0.4c-2.1-1.9-4.4-3.6-6.8-5.3c-0.2-0.5-0.4-0.9-0.4-1.1C26.6,88.6,27.2,88,28.5,88z M35.1,100.5
			c1.1,0,1.6,0.6,1.6,1.8c-0.4,2.4-1,4.7-1.8,7c-0.9,2.3-2,4.6-3.4,6.8c-0.4,0.7-0.9,1.1-1.6,1.1c-1.2,0-1.8-0.5-1.8-1.6
			c0-0.1,0.1-0.4,0.4-0.7c1.7-2.8,2.7-4.8,3.1-6.2c0.7-2,1.4-4.4,2-7.1C33.9,100.8,34.3,100.5,35.1,100.5z M31.6,76.3
			c0.3,0,0.6,0.2,1,0.5c2,1.4,3.9,2.9,5.7,4.6c0.3,0.4,0.4,0.7,0.4,1c0,1.2-0.6,1.8-1.9,1.8c-0.4,0-0.7-0.1-1.1-0.4
			c-1.8-1.6-3.7-3.2-5.7-4.7c-0.2-0.5-0.4-0.9-0.4-1.1C29.7,76.9,30.3,76.3,31.6,76.3z M64.3,81.5c1,0,1.5,0.5,1.5,1.4
			c0,1.1-0.5,1.6-1.5,1.6H54.1v8.8h11.7c0.9,0,1.4,0.5,1.4,1.4c0,1-0.5,1.6-1.4,1.6H51.6l-6.7,16c6.3-0.3,12.1-0.8,17.3-1.7
			c-1.4-2.7-2.8-5-4.2-6.9c-0.2-0.4-0.4-0.7-0.4-0.9c0-0.9,0.6-1.4,1.8-1.4c0.4,0,0.8,0.3,1.2,0.9c2.8,3.7,5.2,7.9,7.1,12.6
			c0.1,0.4,0.1,0.8,0.1,1.2c0,0.9-0.6,1.4-1.9,1.4c-0.5,0-0.9-0.4-1.2-1.2c-0.4-0.9-0.7-1.8-1.1-2.7c-0.1,0-0.2,0-0.3,0
			c-8.7,1.2-17.1,2.1-25,2.6c-1,0-1.5-0.7-1.5-2.1c0-1,0.5-1.6,1.5-1.6c1,0,2-0.1,3-0.1l6.8-16.2h-7.9c-0.9,0-1.4-0.5-1.4-1.6
			c0-1,0.5-1.4,1.4-1.4h10.5v-8.8h-9.3c-0.9,0-1.4-0.5-1.4-1.6c0-0.9,0.5-1.4,1.4-1.4h9.3v-4.3c0-1.1,0.5-1.6,1.6-1.6
			c1.2,0,1.8,0.5,1.8,1.6v4.3H64.3z"/>
		<path class="st1" d="M104.1,87.1c0,1.7-0.9,3.4-2.6,5c-0.4,0.3-2,1.5-5,3.6c-1.6,1.2-2.4,3.1-2.4,6c0,1.2-0.5,1.7-1.6,1.7
			c-1.1,0-1.6-0.6-1.6-1.7c0-1.9,0.2-3.4,0.5-4.4c0.5-1.3,1.5-2.5,3-3.6c1.4-1,2.8-2.1,4.3-3.1c1.4-1.2,2.2-2.4,2.2-3.5
			c0-1.5-0.9-2.7-2.7-3.6c-1.6-0.7-3.4-1.1-5.5-1.1c-5.1,0-8,2.1-8.9,6.2c-0.2,1.1-0.7,1.6-1.6,1.6c-1.1,0-1.7-0.6-1.7-1.8
			c0-2.5,1.2-4.7,3.6-6.6c2.2-1.7,5.1-2.5,8.5-2.5c3.2,0,5.8,0.6,7.8,1.7C102.8,82.3,104.1,84.3,104.1,87.1z M95.6,110.1
			c0,0.8-0.3,1.5-0.8,2.1c-0.6,0.6-1.3,0.9-2.1,0.9c-0.8,0-1.5-0.3-2.1-0.9c-0.6-0.6-0.9-1.3-0.9-2.1s0.3-1.5,0.9-2.1
			c0.6-0.6,1.3-0.9,2.1-0.9c0.8,0,1.5,0.3,2.1,0.9C95.3,108.6,95.6,109.3,95.6,110.1z"/>
	</g>
</g>
</svg>
