<?xml version="1.0" encoding="utf-8"?>
<!-- Generator: Adobe Illustrator 21.1.0, SVG Export Plug-In . SVG Version: 6.00 Build 0)  -->
<svg version="1.1" id="圖層_1" xmlns="http://www.w3.org/2000/svg" xmlns:xlink="http://www.w3.org/1999/xlink" x="0px" y="0px"
	 viewBox="0 0 139 139" style="enable-background:new 0 0 139 139;" xml:space="preserve">
<style type="text/css">
	.st0{fill:#FFFFFF;}
	.st1{fill:#6BD1C0;}
</style>
<g id="圖層_1_1_">
</g>
<g>
	<g id="圖層_1_2_">
		<title>アセット 7</title>
		<circle class="st0" cx="69.5" cy="69.5" r="69.5"/>
		<polygon class="st0" points="121,103 135,139 101,121 		"/>
	</g>
	<path class="st1" d="M42,30.3c1.1,0,1.6,0.5,1.6,1.5c0,1.1-0.5,1.6-1.6,1.6h-4.9v9.8c1.5-0.7,3.3-1.6,5.3-2.7l0.7-0.1
		c1.1,0,1.6,0.6,1.6,1.8c0,0.4-0.3,0.8-1,1.3c-1.5,1-3.6,2.1-6.2,3.3c-0.1,0.1-0.3,0.1-0.4,0.2v11.9c0,2.7-1.5,4.1-4.5,4.1
		c-1.3,0-3.1-0.3-5.3-0.9c-0.9-0.3-1.3-0.8-1.3-1.6c0.1-1.1,0.5-1.7,1.5-1.8c0.2,0,0.4,0,0.8,0.1c2.2,0.5,3.6,0.8,4.3,0.8
		c0.7,0,1.1-0.5,1.1-1.6v-9.6c-1.8,0.7-3.5,1.3-5.1,1.7c-0.4,0.1-0.8,0.2-1.2,0.2c-1.1,0-1.6-0.6-1.6-1.8c0-0.9,0.4-1.5,1.2-1.8
		c2.7-0.7,4.9-1.4,6.7-2.1V33.4H28c-1.1,0-1.6-0.5-1.6-1.6c0-1,0.5-1.5,1.6-1.5h5.7V23c0-1.1,0.5-1.6,1.6-1.6c1.2,0,1.8,0.5,1.8,1.6
		v7.3H42z M62.9,37.3c0.4,0,0.8,0.2,1.2,0.5c0.4,0.3,0.5,0.7,0.5,1.1c0,0.6-0.1,1.1-0.4,1.5c-2.1,3.2-3.9,5.6-5.4,7.3
		c-0.6,0.7-1.3,1.4-1.9,2c0.2,0.5,0.4,1,0.6,1.5c0.8,2.1,1.8,4.1,2.9,5.8c0.6,1,1.1,1.5,1.5,1.5c0.2,0,0.4-0.5,0.6-1.6
		c0.3-2.2,0.5-4.4,0.5-6.6c0.1-1.1,0.6-1.6,1.5-1.6c1.1,0.3,1.6,1,1.6,2.2c0,3-0.4,5.8-1.1,8.6c-0.6,2-1.6,3.1-2.8,3.1
		s-2.5-0.8-3.9-2.5c-1.5-2-2.8-4.7-4-8.1l0,0c-0.4,0.4-0.8,0.7-1.2,1c-2.5,1.8-5.2,3.5-8.1,5.1c-0.4,0.3-0.9,0.4-1.2,0.4
		c-0.4,0-0.8-0.2-1.1-0.6c-0.3-0.4-0.4-0.8-0.4-1.3c0-0.6,0.3-1,1-1.4c3-1.6,5.6-3.3,7.8-5c0.7-0.6,1.4-1.2,2.1-1.8
		c-0.8-2.9-1.4-6.1-1.9-9.7c-0.1-0.9-0.2-1.9-0.3-2.8l-5.7,0.8c-1.1,0-1.6-0.5-1.6-1.6s0.5-1.6,1.6-1.6l5.5-0.8
		c-0.2-3.1-0.3-6.3-0.3-9.8c0-1.1,0.5-1.6,1.6-1.6c1.2,0,1.8,0.5,1.8,1.6c0,3.4,0.1,6.5,0.3,9.3l11.4-1.7c1.1,0,1.6,0.5,1.6,1.6
		c0,1-0.5,1.5-1.6,1.5l-11.2,1.6c0.2,2.1,0.4,4,0.7,5.8c0.3,1.7,0.6,3.2,0.9,4.6c0.3-0.2,0.5-0.5,0.7-0.8c1.4-1.6,3.2-3.9,5.2-7
		C62.1,37.5,62.5,37.3,62.9,37.3z M58,22.2c0.3,0,0.6,0.1,1,0.4c0.8,0.5,1.6,1,2.3,1.5c1,0.7,2,1.5,2.9,2.5c0.4,0.4,0.5,0.7,0.5,0.8
		c0,1.1-0.5,1.6-1.4,1.6c-0.6,0-1.2-0.2-1.6-0.5c-1.1-1-1.9-1.8-2.7-2.3c-0.6-0.5-1.3-0.9-2-1.4c-0.4-0.4-0.5-0.9-0.5-1.3
		C56.5,22.7,57,22.2,58,22.2z"/>
	<path class="st1" d="M108.5,48.3c0.9,0,1.4,0.5,1.4,1.5c0,0.9-0.5,1.4-1.4,1.4H104c0,0.2-0.1,0.4-0.2,0.7s-0.2,0.5-0.3,0.7
		c0.7,0.5,1.4,1,2.1,1.4c1.5,0.8,2.8,1.4,4,1.8c0.6,0.3,0.9,0.7,0.9,1.3c0,0.3-0.1,0.6-0.3,0.9c-0.2,0.4-0.6,0.5-1,0.5
		c-0.2,0-0.5-0.1-0.7-0.2c-1.1-0.5-2.2-1-3.3-1.5c-1.1-0.6-2.1-1.2-3.1-1.9c-0.5,0.7-1,1.3-1.6,1.9c-0.6,0.6-1.3,1.1-2.1,1.5
		c-0.3,0.3-0.5,0.4-0.8,0.4c-0.4,0-0.7-0.2-1.1-0.5c-0.3-0.3-0.4-0.7-0.4-1.1c0-0.4,0.1-0.7,0.4-0.9c0.7-0.4,1.4-0.8,1.9-1.2
		c0.6-0.6,1.2-1.2,1.7-1.8c0.4-0.6,0.8-1.2,1.1-1.9h-7.3v8.1h17.5c1,0,1.5,0.5,1.5,1.4c0,1.1-0.5,1.6-1.5,1.6H72.9
		c-1,0-1.5-0.5-1.5-1.6c0-0.9,0.5-1.4,1.5-1.4h18.2v-8.1h-7.8c0,0.2-0.1,0.4-0.2,0.7s-0.2,0.5-0.3,0.8c0.8,0.6,1.5,1.2,2.1,1.6
		c1.2,0.7,2.4,1.3,3.6,1.7c0.6,0.1,0.9,0.6,0.9,1.3c0,0.8-0.4,1.2-1.2,1.2c-0.3,0-0.7-0.1-1.2-0.3c-0.7-0.3-1.5-0.6-2.3-1.1
		c-0.9-0.5-1.9-1.3-3.2-2.3c-0.5,0.8-1.1,1.5-1.8,2.1c-0.6,0.6-1.3,1.1-2.1,1.6c-0.3,0.2-0.5,0.4-0.8,0.4c-0.4,0-0.7-0.2-1.1-0.5
		c-0.3-0.3-0.4-0.7-0.4-1.1c0-0.4,0.1-0.7,0.4-0.9c0.7-0.4,1.4-0.8,1.9-1.3c0.6-0.6,1.2-1.2,1.7-1.9c0.4-0.6,0.8-1.2,1.1-1.9h-5
		c-0.9,0-1.4-0.5-1.4-1.4c0-1,0.5-1.5,1.4-1.5h33.1V48.3z M107.9,22.6c0.9,0,1.4,0.5,1.4,1.4s-0.5,1.4-1.4,1.4H93.6v1.8h15.6
		c1.2,0,2,0.4,2.6,1.2c0.5,0.6,0.8,1.5,0.8,2.7c0,0.9-0.1,1.8-0.2,2.9c-0.3,0.8-0.9,1.2-1.8,1.2c-1.1,0-1.6-0.5-1.6-1.6
		c0.2-1.2,0.3-2,0.3-2.3c0-1.1-0.4-1.6-1.2-1.6H93.6v6.4c0,0.9-0.5,1.4-1.6,1.4c-1,0-1.4-0.5-1.4-1.4v-6.4H75.7
		c-0.4,0-0.7,0.3-0.7,0.8v3.1c0,0.9-0.5,1.4-1.6,1.4c-0.9,0-1.4-0.5-1.4-1.4v-3.5c0-1.9,1-2.9,2.9-2.9h15.7v-1.8H76.5
		c-1,0-1.5-0.4-1.5-1.4c0-0.9,0.5-1.4,1.4-1.4H107.9z M76.6,38.9h5.7c1.6,0,2.4,0.7,2.4,2.1v3.5c0,1.5-0.8,2.3-2.4,2.3h-5.7
		c-1.5,0-2.3-0.8-2.3-2.3V41C74.3,39.6,75,38.9,76.6,38.9z M81.3,44.6c0.5,0,0.8-0.3,0.8-0.8V42c0-0.5-0.3-0.8-0.8-0.8h-3.9
		c-0.3,0-0.5,0.3-0.5,0.8v1.8c0,0.6,0.2,0.8,0.5,0.8H81.3z M86.5,31.5c0.7,0,1.1,0.4,1.1,1.1c0,0.8-0.4,1.2-1.1,1.2h-7.6
		c-0.7,0-1.1-0.4-1.1-1.2c0-0.7,0.4-1.1,1.1-1.1C78.9,31.5,86.5,31.5,86.5,31.5z M86.5,35.2c0.7,0,1.1,0.4,1.1,1.1
		c0,0.8-0.4,1.2-1.1,1.2h-7.6c-0.7,0-1.1-0.4-1.1-1.2c0-0.7,0.4-1.1,1.1-1.1H86.5z M89.1,38.7h5.5c1.7,0,2.5,0.7,2.5,2.1v3.7
		c0,1.5-0.8,2.3-2.5,2.3h-5.5c-1.5,0-2.3-0.8-2.3-2.3v-3.7C86.8,39.4,87.6,38.7,89.1,38.7z M93.4,44.6c0.7,0,1-0.4,1-1.2v-1.2
		c0-0.7-0.3-1.1-1-1.1h-3.1c-0.6,0-0.8,0.4-0.8,1.1v1.2c0,0.8,0.3,1.2,0.8,1.2H93.4z M105.4,31.5c0.7,0,1.1,0.4,1.1,1.1
		c0,0.8-0.4,1.2-1.1,1.2h-7.9c-0.7,0-1.1-0.4-1.1-1.2c0-0.7,0.4-1.1,1.1-1.1C97.5,31.5,105.4,31.5,105.4,31.5z M105.3,35.2
		c0.7,0,1,0.4,1,1.1c0,0.8-0.3,1.2-1,1.2h-7.8c-0.7,0-1.1-0.4-1.1-1.2c0-0.7,0.4-1.1,1.1-1.1H105.3z M101.7,38.7h5.7
		c1.7,0,2.5,0.7,2.5,2.1v3.7c0,1.5-0.8,2.3-2.5,2.3h-5.7c-1.5,0-2.3-0.8-2.3-2.3v-3.7C99.4,39.4,100.2,38.7,101.7,38.7z M106.1,44.6
		c0.7,0,1.1-0.4,1.1-1.2v-1.2c0-0.7-0.4-1.1-1.1-1.1H103c-0.6,0-0.9,0.4-0.9,1.1v1.2c0,0.8,0.3,1.2,0.9,1.2H106.1z"/>
	<path class="st1" d="M65.4,79.8c1.1,0,1.6,0.5,1.6,1.4c0,1-0.5,1.6-1.6,1.6H55c0.1,4.9,0.4,9.1,1,12.6c0.1,0.7,0.2,1.4,0.3,2.1
		c0.2-0.3,0.4-0.6,0.6-0.9c0.7-1.2,1.3-2.6,1.9-4.2c0.6-1.6,1.2-3.7,1.6-6.2c0.3-0.6,0.8-0.8,1.5-0.8c0.4,0,0.8,0.1,1.1,0.3
		c0.3,0.3,0.5,0.6,0.5,0.9c0,0.4-0.1,0.8-0.2,1.2c-0.5,2.7-1.1,4.9-1.7,6.7c-0.7,1.7-1.4,3.2-2.1,4.4c-0.7,1.1-1.4,2.1-2.3,3
		c0.3,1.3,0.7,2.5,1.1,3.6c0.7,2.1,1.6,4,2.5,5.8c0.5,1,1,1.5,1.3,1.5c0.4,0,0.8-0.4,1.2-1.2c0.5-1.7,0.8-3.3,0.8-5
		c0.1-1.1,0.6-1.6,1.5-1.6c1.1,0.2,1.6,0.9,1.6,1.9c0,2.5-0.4,4.9-1.3,7.2c-0.7,1.7-1.8,2.6-3.3,2.6c-1.1,0-2.2-0.8-3.5-2.5
		c-1.3-2-2.5-4.7-3.6-8c-0.2-0.7-0.4-1.4-0.6-2.1c-0.6,0.4-1.1,0.7-1.7,1.1c-0.6,0.3-1,0.4-1.2,0.4c-0.4,0-0.8-0.2-1.2-0.5
		c-0.3-0.3-0.4-0.7-0.4-1.1c0-0.7,0.3-1.2,0.8-1.5c1.1-0.6,2-1.3,2.7-2c-0.5-2.3-0.9-4.8-1.2-7.5c-0.4-3.1-0.6-6.5-0.7-10.1H33.7
		c-0.7,0-1.1,0.3-1.1,1v5.7c0,6.6-0.4,12.1-1.1,16.4c-0.6,4-1.3,7.4-2.1,10c-0.3,0.7-0.8,1.1-1.5,1.1c-1.1-0.1-1.7-0.6-1.8-1.6
		c0-0.4,0.2-1.2,0.6-2.4c0.3-0.9,0.5-2,0.8-3.2c0.4-2,0.7-4,1-6c0.6-4.5,0.9-9.2,0.9-14.3v-7.3c0-1.6,0.9-2.4,2.6-2.4h19.7v-2.4
		c0-1.1,0.5-1.6,1.5-1.6c1.1,0,1.6,0.5,1.6,1.6v2.4h6.6c-1.1-0.5-2.2-0.9-3.2-1.2c-0.7-0.2-1-0.7-1-1.4c0-0.9,0.5-1.4,1.5-1.4
		c0.1,0,0.3,0,0.5,0.1c0.9,0.3,2,0.8,3.2,1.5c0.6,0.2,0.9,0.5,0.9,1c0,0.7-0.2,1.2-0.7,1.4L65.4,79.8L65.4,79.8z M34.6,105.7
		c0.4,0,0.8,0.1,1.2,0.4c0.4,0.2,0.5,0.5,0.5,0.8c0,0.2-0.1,0.5-0.2,0.8c-0.8,3.1-1.6,5.9-2.6,8.3c-0.3,0.5-0.7,0.8-1.1,0.8
		c-1.2,0-1.8-0.4-1.8-1.2c0-0.4,0.1-0.6,0.2-0.7c0.9-2.2,1.7-5,2.7-8.4C33.7,106,34.1,105.7,34.6,105.7z M48.6,85.5
		c0.8,0,1.2,0.4,1.2,1.3s-0.4,1.4-1.2,1.4H35.5c-0.9,0-1.3-0.5-1.3-1.4s0.4-1.3,1.3-1.3H48.6z M37.1,90.7H47c1.8,0,2.7,0.8,2.7,2.3
		v5.8c0,1.7-0.9,2.5-2.7,2.5h-9.9c-1.7,0-2.5-0.8-2.5-2.5V93C34.6,91.4,35.4,90.7,37.1,90.7z M38.5,104.3c1,0,1.6,0.5,1.6,1.5v5.7
		c0,1.2,0.1,1.9,0.4,2.2c0.4,0.3,1,0.4,1.9,0.4c1.8,0,3.1-0.1,3.9-0.2c0.5-0.1,0.8-0.3,0.9-0.6c0.2-0.3,0.3-1.4,0.3-3.4
		c0.1-0.9,0.5-1.4,1.4-1.5c1,0.1,1.6,0.7,1.6,1.9c0,1-0.1,2-0.2,3.1c-0.2,1.4-0.7,2.4-1.5,2.9c-0.7,0.5-2.5,0.8-5.4,0.8
		c-2.6,0-4.3-0.3-5.2-0.9c-0.8-0.8-1.2-2.2-1.2-4.3v-6.2C37,104.8,37.5,104.3,38.5,104.3z M45.5,98.6c0.7,0,1.1-0.4,1.1-1.2v-3
		c0-0.7-0.4-1.1-1.1-1.1h-7c-0.6,0-0.9,0.4-0.9,1.1v3c0,0.8,0.3,1.2,0.9,1.2H45.5z M42.6,103.4c0.4,0,0.8,0.2,1.2,0.7
		c0.9,1.7,1.7,3.5,2.3,5.7c0.1,0.4,0.2,0.7,0.2,1c0,0.8-0.6,1.2-1.8,1.2c-0.5,0-0.9-0.3-1.1-1c-0.6-2.2-1.4-4-2.1-5.3
		c-0.2-0.5-0.3-0.8-0.3-1.1C41,103.8,41.5,103.4,42.6,103.4z M51.8,106.4c0.4,0,0.7,0.3,1,0.8c1.4,2,2.6,4.2,3.5,6.7
		c0.1,0.4,0.2,0.8,0.2,1.1c0,0.9-0.6,1.4-1.8,1.4c-0.5,0-0.9-0.3-1.2-1c-0.9-2.9-1.9-5.2-3-7c-0.1-0.3-0.2-0.5-0.2-0.7
		C50.4,106.8,50.8,106.4,51.8,106.4z"/>
	<path class="st1" d="M103.9,87c0,1.7-0.9,3.4-2.6,5c-0.4,0.3-2,1.5-5,3.6c-1.6,1.2-2.4,3.1-2.4,6c0,1.2-0.5,1.7-1.6,1.7
		c-1.1,0-1.6-0.6-1.6-1.7c0-1.9,0.2-3.4,0.5-4.4c0.5-1.3,1.5-2.5,3-3.6c1.4-1,2.8-2.1,4.3-3.1c1.4-1.2,2.2-2.4,2.2-3.5
		c0-1.5-0.9-2.7-2.7-3.6c-1.6-0.7-3.4-1.1-5.5-1.1c-5.1,0-8,2.1-8.9,6.2c-0.2,1.1-0.7,1.6-1.6,1.6c-1.1,0-1.7-0.6-1.7-1.8
		c0-2.5,1.2-4.7,3.6-6.6c2.2-1.7,5.1-2.5,8.5-2.5c3.2,0,5.8,0.6,7.8,1.7C102.7,82.3,103.9,84.3,103.9,87z M95.4,110.1
		c0,0.8-0.3,1.5-0.8,2.1c-0.6,0.6-1.3,0.9-2.1,0.9s-1.5-0.3-2.1-0.9c-0.6-0.6-0.9-1.3-0.9-2.1s0.3-1.5,0.9-2.1
		c0.6-0.6,1.3-0.9,2.1-0.9c0.8,0,1.5,0.3,2.1,0.9C95.1,108.5,95.4,109.2,95.4,110.1z"/>
</g>
</svg>
