<?xml version="1.0" encoding="utf-8"?>
<!-- Generator: Adobe Illustrator 21.1.0, SVG Export Plug-In . SVG Version: 6.00 Build 0)  -->
<svg version="1.1" id="Layer_1" xmlns="http://www.w3.org/2000/svg" xmlns:xlink="http://www.w3.org/1999/xlink" x="0px" y="0px"
	 viewBox="0 0 492 492" style="enable-background:new 0 0 492 492;" xml:space="preserve">
<style type="text/css">
	.st0{fill:#FFFFFF;}
</style>
<g>
	<g>
		<path class="st0" d="M7.9,265.1l177.7,177.7c5.1,5.1,11.8,7.9,19,7.9c7.2,0,14-2.8,19-7.9l16.1-16.1c5.1-5.1,7.9-11.8,7.9-19
			c0-7.2-2.8-14.2-7.9-19.3L136.1,284.5h329.3c14.8,0,26.6-11.6,26.6-26.5v-22.8c0-14.9-11.7-27.6-26.6-27.6H134.9l104.8-104.5
			c5.1-5.1,7.9-11.7,7.9-18.9c0-7.2-2.8-13.9-7.9-18.9l-16.1-16.1c-5.1-5.1-11.8-7.8-19-7.8c-7.2,0-14,2.8-19,7.9L7.9,226.9
			C2.8,232,0,238.8,0,246C0,253.2,2.8,260,7.9,265.1z"/>
	</g>
</g>
</svg>
