<?xml version="1.0" encoding="utf-8"?>
<!-- Generator: Adobe Illustrator 21.1.0, SVG Export Plug-In . SVG Version: 6.00 Build 0)  -->
<svg version="1.1" id="圖層_1" xmlns="http://www.w3.org/2000/svg" xmlns:xlink="http://www.w3.org/1999/xlink" x="0px" y="0px"
	 viewBox="0 0 83.7 83.7" style="enable-background:new 0 0 83.7 83.7;" xml:space="preserve">
<style type="text/css">
	.st0{fill:#D6F2D7;}
	.st1{fill:#30BF39;}
	.st2{fill-rule:evenodd;clip-rule:evenodd;fill:#F1F2F2;}
</style>
<g>
	<circle class="st0" cx="42.1" cy="41.9" r="41.8"/>
	<circle class="st1" cx="42.1" cy="41.9" r="34.5"/>
	<g>
		<path class="st2" d="M51.3,45.7c-0.5-0.3-2.8-1.5-3.2-1.7c-0.4-0.2-0.8-0.3-1.1,0.2c-0.3,0.5-1.3,1.5-1.6,1.8
			c-0.3,0.3-0.6,0.3-1,0.1c-0.5-0.3-2-0.8-3.8-2.5c-1.4-1.3-2.3-2.9-2.5-3.4c-0.3-0.5,0-0.7,0.2-1c0.2-0.2,0.5-0.5,0.8-0.8
			c0.2-0.3,0.3-0.5,0.5-0.8c0.2-0.3,0.1-0.6,0-0.8c-0.1-0.2-1-2.6-1.3-3.6c-0.4-1-0.8-0.8-1-0.8c-0.3,0-0.6-0.1-0.9-0.1
			c-0.3,0-0.8,0.1-1.3,0.6c-0.5,0.5-1.7,1.6-1.8,3.9c-0.1,2.4,1.5,4.7,1.8,5c0.2,0.3,3.1,5.4,7.9,7.6c4.8,2.1,4.8,1.5,5.7,1.4
			c0.9,0,2.9-1.1,3.3-2.2c0.4-1.1,0.5-2.1,0.4-2.3C52.1,46.1,51.8,45.9,51.3,45.7L51.3,45.7z M42.5,57.1c-3.2,0-6.1-1-8.6-2.6
			l-6,1.9l2-5.8c-1.9-2.6-3-5.7-3-9.2c0-8.6,7-15.6,15.6-15.6c8.6,0,15.6,7,15.6,15.6C58.1,50,51.1,57.1,42.5,57.1L42.5,57.1z
			 M42.5,22.6c-10.4,0-18.8,8.4-18.8,18.8c0,3.6,1,6.9,2.7,9.7L23,61.2l10.4-3.3c2.7,1.5,5.8,2.3,9.1,2.3c10.4,0,18.8-8.4,18.8-18.8
			C61.3,31,52.9,22.6,42.5,22.6L42.5,22.6z"/>
	</g>
</g>
</svg>
