<?xml version="1.0" encoding="utf-8"?>
<!-- Generator: Adobe Illustrator 21.1.0, SVG Export Plug-In . SVG Version: 6.00 Build 0)  -->
<svg version="1.1" id="圖層_1" xmlns="http://www.w3.org/2000/svg" xmlns:xlink="http://www.w3.org/1999/xlink" x="0px" y="0px"
	 viewBox="0 0 28.9 26" style="enable-background:new 0 0 28.9 26;" xml:space="preserve">
<style type="text/css">
	.st0{fill:#211F20;}
</style>
<title>Artboard 10</title>
<g>
	<path class="st0" d="M14.5,21.5c0.6,0,1.2-0.3,1.6-0.7c2.8-3.1,8.6-10.6,5.5-16.4c-0.3-0.5-0.9-0.6-1.4-0.4c0,0-0.1,0-0.1,0.1l0,0
		c-0.4,0.3-0.5,0.8-0.3,1.3c2.6,4.8-3.3,11.9-5.2,14.1h-0.1l0,0h-0.1C13,17.8,8.5,12.2,8.5,8c0-3,2.2-5.5,5.1-5.9
		c0.5-0.1,0.9-0.5,0.9-1l0,0c0-0.6-0.4-1-1-1c-0.1,0-0.1,0-0.1,0C9.4,0.6,6.5,4,6.5,8c0,4.6,4,9.9,6.4,12.7
		C13.3,21.2,13.9,21.4,14.5,21.5z"/>
	<circle class="st0" cx="14.5" cy="7.5" r="2"/>
	<path class="st0" d="M3.5,17.6L3.5,17.6C3,17.4,2.8,16.8,3,16.3l0,0l0.2-0.4C3.6,14.8,4.6,14,5.8,14h4v2h-4c-0.3,0-0.6,0.2-0.7,0.6
		L5,16.7l-0.2,0.5C4.6,17.7,4,17.9,3.5,17.6C3.5,17.7,3.5,17.7,3.5,17.6z"/>
	<path class="st0" d="M26,26H2.9c-0.8,0-1.5-0.3-2.1-0.8c-0.7-0.7-1-1.7-0.7-2.7v-0.1l0.6-1.2c0.2-0.5,0.8-0.7,1.3-0.5l0,0l0,0
		c0.5,0.2,0.7,0.8,0.5,1.3c0,0,0,0,0,0.1L2,23.2C2,23.5,2.3,24,2.7,24h0.1h23.3c0.4,0,0.8-0.3,0.8-0.8v-0.1l-3-6.5
		c-0.1-0.3-0.4-0.6-0.7-0.6h-4.1v-2h4.1c1.2,0,2.3,0.8,2.6,1.9l3,6.6c0.3,1,0,2-0.7,2.7C27.6,25.7,26.8,26,26,26z"/>
</g>
</svg>
