<?xml version="1.0" encoding="utf-8"?>
<!-- Generator: Adobe Illustrator 21.1.0, SVG Export Plug-In . SVG Version: 6.00 Build 0)  -->
<svg version="1.1" id="Layer_1" xmlns="http://www.w3.org/2000/svg" xmlns:xlink="http://www.w3.org/1999/xlink" x="0px" y="0px"
	 viewBox="0 0 286.1 286.1" style="enable-background:new 0 0 286.1 286.1;" xml:space="preserve">
<style type="text/css">
	.st0{fill:#E5785E;}
</style>
<path class="st0" d="M242.8,93.7L242.8,93.7l-50.4-50.5c-6.9-6.9-18.2-7-25.1,0l0,0l0,0l-42.1,42.2v151.4l117.7-117.9
	C249.8,111.9,249.8,100.7,242.8,93.7z M268.1,178.8h-59.7L104.3,282.9c-1.2,1.2-2.5,2-3.7,3.1h167.6c9.9,0,17.9-8,17.9-17.9v-71.5
	C286,186.8,278,178.8,268.1,178.8z M107.3,17.9C107.3,8,99.2,0,89.4,0H17.9C8,0,0,8,0,17.9v214.5C0,262,24,286,53.6,286
	s53.6-24,53.6-53.6V17.9z M53.6,245.8c-7.4,0-13.4-6-13.4-13.4c0-7.4,6-13.4,13.4-13.4S67,225,67,232.4
	C67,239.8,61,245.8,53.6,245.8z M71.5,143H35.8v-35.8h35.8V143z M71.5,71.5H35.8V35.8h35.8V71.5z"/>
</svg>
