<?xml version="1.0" encoding="utf-8"?>
<!-- Generator: Adobe Illustrator 21.1.0, SVG Export Plug-In . SVG Version: 6.00 Build 0)  -->
<svg version="1.1" id="Layer_1" xmlns="http://www.w3.org/2000/svg" xmlns:xlink="http://www.w3.org/1999/xlink" x="0px" y="0px"
	 viewBox="0 0 286.1 286.1" style="enable-background:new 0 0 286.1 286.1;" xml:space="preserve">
<style type="text/css">
	.st0{fill:#E5785E;}
</style>
<path class="st0" d="M10.1,64.8h265.8c5.6,0,10.2-4.6,10.2-10.2V29c0-5.6-4.6-10.2-10.2-10.2H10.1C4.5,18.8-0.1,23.4-0.1,29v25.6
	C-0.1,60.2,4.5,64.8,10.1,64.8z M10.1,167h265.8c5.6,0,10.2-4.6,10.2-10.2v-25.6c0-5.6-4.6-10.2-10.2-10.2H10.1
	c-5.6,0-10.2,4.6-10.2,10.2v25.6C-0.1,162.4,4.5,167,10.1,167z M10.1,269.2h265.8c5.6,0,10.2-4.6,10.2-10.2v-25.6
	c0-5.6-4.6-10.2-10.2-10.2H10.1c-5.6,0-10.2,4.6-10.2,10.2V259C-0.1,264.6,4.5,269.2,10.1,269.2z"/>
</svg>
