<?xml version="1.0" encoding="utf-8"?>
<!-- Generator: Adobe Illustrator 21.1.0, SVG Export Plug-In . SVG Version: 6.00 Build 0)  -->
<svg version="1.1" id="Layer_1" xmlns="http://www.w3.org/2000/svg" xmlns:xlink="http://www.w3.org/1999/xlink" x="0px" y="0px"
	 viewBox="0 0 286.1 286.1" style="enable-background:new 0 0 286.1 286.1;" xml:space="preserve">
<style type="text/css">
	.st0{fill:#E5785E;}
</style>
<path class="st0" d="M280.3,13.4c-0.7-3.4-3.4-6-6.7-6.7c-17.7-3.8-31.6-3.8-45.5-3.8c-56.9,0-91,30.4-116.5,70.6H54.2
	c-10,0-19.1,5.7-23.6,14.6L3.4,142.5C0.1,149,2.8,157,9.3,160.3c1.8,0.9,3.9,1.4,5.9,1.4h57.2L60,174c-6.9,6.9-6.9,18.1,0,24.9
	L88.1,227c6.9,6.9,18.1,6.9,24.9,0c0,0,0,0,0,0l12.4-12.4v57.2c0,7.3,5.9,13.2,13.2,13.2c2,0,4.1-0.5,5.9-1.4l54.4-27.2
	c9-4.5,14.6-13.6,14.6-23.6v-57.6c40-25.5,70.6-59.8,70.6-116.4C284.2,45.1,284.2,31.2,280.3,13.4L280.3,13.4z M213.6,95.5
	c-12.2,0-22-9.9-22-22s9.9-22,22-22c12.2,0,22,9.9,22,22S225.8,95.5,213.6,95.5z"/>
</svg>
