<?xml version="1.0" encoding="utf-8"?>
<!-- Generator: Adobe Illustrator 21.1.0, SVG Export Plug-In . SVG Version: 6.00 Build 0)  -->
<svg version="1.1" id="Layer_1" xmlns="http://www.w3.org/2000/svg" xmlns:xlink="http://www.w3.org/1999/xlink" x="0px" y="0px"
	 viewBox="0 0 286.1 286.1" style="enable-background:new 0 0 286.1 286.1;" xml:space="preserve">
<style type="text/css">
	.st0{fill:#FF834D;}
</style>
<g>
	<path class="st0" d="M143,0C64,0,0,64,0,143c0,79,64,143,143,143s143-64,143-143C286.1,64,222,0,143,0z M143,259.2
		c-64.2,0-116.2-52-116.2-116.2S78.8,26.8,143,26.8s116.2,52,116.2,116.2S207.2,259.2,143,259.2z M167.7,137.6
		c9-5.9,13.4-15.3,13.4-26c0-13.2-11.3-31.1-34.7-31.1c-18.1,0-35.5,14.3-35.5,27.5c0,6.3,3.9,12.6,10.6,12.6
		c11.1,0,9-16.6,24.4-16.6c7.3,0,11.7,4.9,11.7,11.4c0,18.9-23.2,6.8-23.2,24.6c0,20,27.7,2.5,27.7,26.3c0,9-6.9,15.8-15.3,15.8
		c-18.4,0-15.8-19.9-26.9-19.9c-5.9,0-12.6,4.8-12.6,11.4c0,13.4,15,31.9,39.1,31.9c23.2,0,41.1-17.2,41.1-37.5
		C187.6,154.6,179.4,143.3,167.7,137.6z"/>
</g>
</svg>
