<?xml version="1.0" encoding="utf-8"?>
<!-- Generator: Adobe Illustrator 21.1.0, SVG Export Plug-In . SVG Version: 6.00 Build 0)  -->
<svg version="1.1" id="Layer_1" xmlns="http://www.w3.org/2000/svg" xmlns:xlink="http://www.w3.org/1999/xlink" x="0px" y="0px"
	 viewBox="0 0 286.1 286.1" style="enable-background:new 0 0 286.1 286.1;" xml:space="preserve">
<style type="text/css">
	.st0{fill:#FF834D;}
</style>
<g>
	<path class="st0" d="M143,0C64,0,0,64,0,143c0,79,64,143,143,143s143-64,143-143C286.1,64,222,0,143,0z M143,259.2
		c-64.2,0-116.2-52-116.2-116.2S78.8,26.8,143,26.8s116.2,52,116.2,116.2S207.2,259.2,143,259.2z"/>
	<path class="st0" d="M150,80.4h-22.8c-6.9,0-10.9,7-10.9,13.2c0,5.9,3.2,13.2,10.9,13.2h7.3v85.4c0,8.7,6.3,13.6,13.2,13.6
		s13.2-4.9,13.2-13.6V92.8C160.8,85.8,156.9,80.4,150,80.4z"/>
</g>
</svg>
