<?xml version="1.0" encoding="utf-8"?>
<!-- Generator: Adobe Illustrator 21.1.0, SVG Export Plug-In . SVG Version: 6.00 Build 0)  -->
<svg version="1.1" id="Layer_1" xmlns="http://www.w3.org/2000/svg" xmlns:xlink="http://www.w3.org/1999/xlink" x="0px" y="0px"
	 viewBox="0 0 286.1 286.1" style="enable-background:new 0 0 286.1 286.1;" xml:space="preserve">
<style type="text/css">
	.st0{fill:#FF834D;}
</style>
<g>
	<path class="st0" d="M143,0C64,0,0,64,0,143c0,79,64,143,143,143s143-64,143-143C286.1,64,222,0,143,0z M143,259.2
		c-64.2,0-116.2-52-116.2-116.2S78.8,26.8,143,26.8s116.2,52,116.2,116.2S207.2,259.2,143,259.2z M173.2,180.2h-32
		c15.7-18.5,40.9-39.8,40.9-63.7c0-21.9-16.6-35.9-39.2-35.9c-22.7,0-43.8,18-43.8,39.7c0,6.7,4.6,12.6,13.4,12.6
		c17.7,0,8.1-28.5,29.3-28.5c7.6,0,13.3,6.2,13.3,13.3c0,6.2-3.1,11.6-6.5,16c-14,19-30.6,34.5-45.9,51.6c-1.8,2.1-4.2,5.2-4.2,8.8
		c0,7.9,6.3,11.4,14.4,11.4h61.5c7,0,13.3-4.6,13.3-12.5C187.6,185.1,181.3,180.2,173.2,180.2z"/>
</g>
</svg>
