<?xml version="1.0" encoding="utf-8"?>
<!-- Generator: Adobe Illustrator 21.1.0, SVG Export Plug-In . SVG Version: 6.00 Build 0)  -->
<svg version="1.1" xmlns="http://www.w3.org/2000/svg" xmlns:xlink="http://www.w3.org/1999/xlink" x="0px" y="0px"
	 viewBox="0 0 65 65" style="enable-background:new 0 0 65 65;" xml:space="preserve">
<style type="text/css">
	.st0{display:none;}
	.st1{display:inline;fill:#FFFFFF;}
	.st2{fill:#FFFFFF;}
</style>
<g id="圖層_1" class="st0">
	<path class="st1" d="M58.4,9.5c-6.9-5.8-17-4.8-23.3,1.7l-2.5,2.5l-2.5-2.5C23.9,4.7,13.7,3.7,6.9,9.5c-7.9,6.7-8.3,18.7-1.2,26
		l24.2,25c1.6,1.6,4.1,1.6,5.7,0l24.2-25C66.7,28.2,66.3,16.2,58.4,9.5L58.4,9.5z"/>
</g>
<g id="圖層_4" class="st0">
	<path class="st1" d="M2.1,19.2v37.1c0,1.2,1.2,2,2.4,1.6l14.8-6.7V10l-15,6C3,16.5,2.1,17.8,2.1,19.2z M22.7,51.1L43.3,58V16.9
		L22.7,10V51.1z M61.5,10.1l-14.8,6.7V58l15-6c1.3-0.5,2.2-1.8,2.2-3.2V11.7C63.9,10.5,62.6,9.7,61.5,10.1z"/>
</g>
<g id="圖層_5">
	<path class="st2" d="M65,32.9C65,50.6,50.7,65,33,65c-7.6,0-14.6-2.6-20.1-7.1c-1.4-1.2-1.5-3.3-0.2-4.6l1.5-1.5
		c1.1-1.1,2.9-1.2,4.1-0.3c4,3.2,9.2,5.1,14.8,5.1c13.1,0,23.7-10.6,23.7-23.7C56.7,19.9,46.1,9.3,33,9.3c-6.3,0-12,2.4-16.3,6.4
		l6.5,6.5c1.3,1.3,0.4,3.5-1.5,3.5H3.1c-1.1,0-2.1-0.9-2.1-2.1V5c0-1.8,2.2-2.8,3.5-1.5l6.4,6.4C16.6,4.4,24.4,1,33,1
		C50.7,1,65,15.3,65,32.9z M41.7,43.1l1.3-1.6c1.1-1.4,0.8-3.3-0.5-4.3L37.1,33V19.6c0-1.7-1.4-3.1-3.1-3.1H32
		c-1.7,0-3.1,1.4-3.1,3.1v17.5l8.4,6.6C38.7,44.7,40.6,44.5,41.7,43.1z"/>
</g>
<g id="圖層_6" class="st0">
	<path class="st1" d="M61.9,0.3c-4.8,1.4-14,4.3-23.5,7.7c-0.3-0.9-0.5-1.7-0.7-2.3c-0.4-1.2-1.7-1.8-2.9-1.2
		C29.6,7.2,15.8,14.8,8.1,22.3c-0.1,0.1-0.3,0.2-0.4,0.4c-4.8,4.7-7.1,11-7.1,17.2c0,6.2,2.4,12.5,7.1,17.2c4.7,4.7,11,7.1,17.2,7.1
		c6.2,0,12.5-2.4,17.2-7.1c0.1-0.1,0.2-0.3,0.4-0.4c7.5-7.7,15-21.5,17.8-26.8c0.6-1.1,0-2.5-1.2-2.9c-0.6-0.2-1.4-0.4-2.3-0.7
		c3.4-9.5,6.2-18.6,7.7-23.5C64.9,1.3,63.4-0.2,61.9,0.3z M24.5,56.2c-8.8,0-16-7.2-16-16s7.2-16,16-16s16,7.2,16,16
		S33.3,56.2,24.5,56.2z M20.5,32.2c-2.2,0-4,1.8-4,4s1.8,4,4,4s4-1.8,4-4S22.7,32.2,20.5,32.2z M26.5,44.2c-1.1,0-2,0.9-2,2
		s0.9,2,2,2c1.1,0,2-0.9,2-2S27.6,44.2,26.5,44.2z"/>
</g>
<g id="圖層_2" class="st0">
	<path class="st1" d="M47.5,32.5c0-0.4-0.3-0.8-0.8-0.8H33.3V18.2c0-0.4-0.3-0.8-0.8-0.8s-0.8,0.3-0.8,0.8v13.5H18.2
		c-0.4,0-0.8,0.3-0.8,0.8s0.3,0.8,0.8,0.8h13.5v13.5c0,0.4,0.3,0.8,0.8,0.8s0.8-0.3,0.8-0.8V33.3h13.5
		C47.2,33.3,47.5,32.9,47.5,32.5z"/>
</g>
</svg>
