<?xml version="1.0" encoding="utf-8"?>
<!-- Generator: Adobe Illustrator 21.1.0, SVG Export Plug-In . SVG Version: 6.00 Build 0)  -->
<svg version="1.1" id="圖層_1" xmlns="http://www.w3.org/2000/svg" xmlns:xlink="http://www.w3.org/1999/xlink" x="0px" y="0px"
	 viewBox="0 0 83.7 83.7" style="enable-background:new 0 0 83.7 83.7;" xml:space="preserve">
<style type="text/css">
	.st0{fill:#EED6D4;}
	.st1{fill:#A83429;}
	.st2{fill:#F1F2F2;}
</style>
<g>
	<circle class="st0" cx="41.9" cy="41.8" r="41.8"/>
	<circle class="st1" cx="41.9" cy="41.8" r="34.5"/>
	<g>
		<path class="st2" d="M44.6,51.1C42,50.9,41,49.7,39,48.5c-1.1,5.7-2.4,11.2-6.4,14c-1.2-8.6,1.8-15.1,3.2-22
			c-2.4-4,0.3-12,5.3-10.1c6.2,2.4-5.3,14.9,2.4,16.4c8.1,1.6,11.3-14,6.4-19.1c-7.2-7.3-21-0.2-19.3,10.3c0.4,2.6,3.1,3.3,1.1,6.9
			c-4.6-1-6-4.7-5.8-9.5c0.3-8,7.1-13.5,14-14.3c8.7-1,16.9,3.2,18,11.4C59.1,41.9,53.9,51.9,44.6,51.1L44.6,51.1z M44.6,51.1"/>
	</g>
</g>
</svg>
