<?xml version="1.0" encoding="utf-8"?>
<!-- Generator: Adobe Illustrator 21.1.0, SVG Export Plug-In . SVG Version: 6.00 Build 0)  -->
<svg version="1.1" id="圖層_1" xmlns="http://www.w3.org/2000/svg" xmlns:xlink="http://www.w3.org/1999/xlink" x="0px" y="0px"
	 viewBox="0 0 22 22" style="enable-background:new 0 0 22 22;" xml:space="preserve">
<style type="text/css">
	.st0{fill:#707070;}
</style>
<title>Icons32px / Share</title>
<desc>Created with Sketch.</desc>
<g>
	<path class="st0" d="M2,11c0-0.6,0.4-1,1-1s1,0.4,1,1v8c0,0.6,0.4,1,1,1h12c0.6,0,1-0.4,1-1v-8c0-0.6,0.4-1,1-1s1,0.4,1,1v8
		c0,1.7-1.3,3-3,3H5c-1.7,0-3-1.3-3-3V11z"/>
	<path class="st0" d="M11,2.4L7.7,5.7c-0.4,0.4-1,0.4-1.4,0s-0.4-1,0-1.4l4-4c0.4-0.4,1-0.4,1.4,0l4,4c0.4,0.4,0.4,1,0,1.4
		s-1,0.4-1.4,0L11,2.4z"/>
	<path class="st0" d="M10,1c0-0.6,0.4-1,1-1s1,0.4,1,1v13c0,0.6-0.4,1-1,1s-1-0.4-1-1V1z"/>
</g>
</svg>
