<?xml version="1.0" encoding="utf-8"?>
<!-- Generator: Adobe Illustrator 21.1.0, SVG Export Plug-In . SVG Version: 6.00 Build 0)  -->
<svg version="1.1" id="圖層_1" xmlns="http://www.w3.org/2000/svg" xmlns:xlink="http://www.w3.org/1999/xlink" x="0px" y="0px"
	 viewBox="0 0 700 700" style="enable-background:new 0 0 700 700;" xml:space="preserve">
<style type="text/css">
	.st0{fill:#FFFFFF;}
</style>
<path class="st0" d="M115.5,318.3c0-8.3,0-16.5,0-24.8c0.5-3.8,1-7.7,1.6-11.5c1.6-10.9,3.7-21.6,9.2-31.4c2.7-4.7,6-8.8,12.5-8.5
	c0-1.6,0-3,0-4.4c0-17.1,0.2-34.1-0.1-51.2c-0.2-13.8,5-24.2,17.4-30.8c0.7-0.4,1.3-0.9,2-1.2c11.6-4.7,22.9-10.3,34.8-13.8
	c42.8-12.6,86.9-16.6,131.3-17.9c43-1.3,85.8,0.5,128.3,6.9c23.7,3.6,47,8.4,69.4,17.1c9.5,3.7,18.8,8.1,26.5,15
	c4,3.6,7.4,7.7,7.9,13.3c0.5,5.8,1,11.6,1.1,17.4c0.2,15.1,0.1,30.3,0.1,45.4c0,1.4,0,2.8,0,4.3c6-0.4,9.6,2.8,11.8,7.2
	c3,6.2,5.8,12.7,7.6,19.3c2,7.3,2.7,14.9,4,22.3c0,9.9,0,19.6,0,29.5c-0.5,3.4-1,6.8-1.6,10.2c-1.6,10.5-3.8,20.9-9.2,30.2
	c-2.7,4.7-6.2,8.6-12.6,8.3c0,1.5,0,2.8,0,4c0,40.7,0.1,81.5,0,122.2c0,19.2-14,34.5-33,36.2c-3,0.3-6.1,0.3-9.6,0.5
	c0,7.1,0,13.9,0,20.7c-0.1,14.7-9.9,24.5-24.6,24.6c-6.4,0.1-12.6,0-19,0c-16-0.1-25.5-9.6-25.6-25.6c0-6.6,0-13.1,0-19.6
	c-65.4,0-130.3,0-195.5,0c0,7.5,0.1,14.8,0,22c-0.2,12.6-10,22.7-22.5,23.1c-8.1,0.2-16.3,0.2-24.4,0c-10.3-0.2-19.2-7.4-21.7-17.4
	c-0.7-2.9-0.8-5.9-0.9-8.8c-0.2-6.3,0-12.6,0-19.2c-1.8,0-3,0-4.3,0c-22.7-0.2-37.8-15.4-37.8-38.2c0-39.8,0-79.7,0-119.5
	c0-1.6,0-3.3,0-5.1c-5.7,0.3-9.5-2.6-11.4-7c-3.4-7.8-6.4-15.7-8.6-23.9C117,332,116.5,325.1,115.5,318.3z M348.2,412.3
	c47.6,0,95.1,0,142.7,0c16.4,0,28.4-11.5,28.4-27.4c0.1-52.4,0.1-104.7,0-157c0-17.5-11.6-28.9-29-28.9c-94.6,0-189.2,0-283.9,0
	c-18,0-29.4,11.3-29.4,29.2c-0.1,51.7,0,103.4,0,155.1c0,2.8,0.2,5.7,0.9,8.5c3.1,12.6,13.7,20.5,27.5,20.5
	C253.1,412.4,300.7,412.3,348.2,412.3z M348.4,150.5c-25.6,0-51.2,0-76.7,0c-1.8,0-3.6,0-5.4,0.2c-7,1-11.9,8.1-10.6,15.1
	c1.3,7.1,6.6,11.2,15,11.2c51.8,0,103.6,0,155.5,0c1.4,0,2.9-0.1,4.3-0.3c5.3-1,8.8-4.2,10.3-9.3c2.6-8.9-3.8-16.8-13.8-16.8
	C400.6,150.4,374.5,150.5,348.4,150.5z M215.7,495.3c14.2-0.1,25.5-11.5,25.4-25.7c-0.1-14-11.5-25.3-25.5-25.4
	s-25.7,11.5-25.7,25.6C190.1,484,201.5,495.4,215.7,495.3z M480.7,495.3c14.2,0.1,25.7-11.3,25.7-25.4s-11.5-25.7-25.6-25.6
	c-14,0-25.4,11.4-25.5,25.3C455.2,483.8,466.6,495.3,480.7,495.3z"/>
</svg>
