<?xml version="1.0" encoding="utf-8"?>
<!-- Generator: Adobe Illustrator 21.1.0, SVG Export Plug-In . SVG Version: 6.00 Build 0)  -->
<svg version="1.1" id="圖層_1" xmlns="http://www.w3.org/2000/svg" xmlns:xlink="http://www.w3.org/1999/xlink" x="0px" y="0px"
	 viewBox="0 0 700 700" style="enable-background:new 0 0 700 700;" xml:space="preserve">
<style type="text/css">
	.st0{fill:#FFFFFF;}
</style>
<path class="st0" d="M584.5,357.3c0,32,0,64,0,96c-2.4,9.3-7.4,16.5-17.2,18.6c-3.8,0.8-4.2,2.5-4.2,5.7c0.1,13.2,0.2,26.3,0,39.5
	c-0.1,11.2-7,18-18.2,18c-10.7,0.1-21.3,0.1-32,0c-10.6-0.1-17.4-7-17.5-17.6c-0.1-8,0-16,0-24c0-6.6,0-13.2,0-19.9
	c-97.3,0-194,0-291,0c0,2.1,0,3.9,0,5.7c0,12.7,0.1,25.3,0,38c-0.1,10.2-6.7,17.5-16.5,17.7c-11.7,0.3-23.3,0.3-35,0
	c-9.6-0.3-16.3-7.5-16.4-17.3c-0.1-10.7,0-21.3,0-32c0-4.3,0-8.6,0-13.1c-10.9-1-17.1-7.4-21-16.4c0-35,0-70,0-105
	c0.3-0.6,0.7-1.1,0.8-1.7c3-15.5,11.5-27,24.7-35.3c0.9-0.6,1.8-1.2,2.7-1.9c-0.5-0.5-0.6-0.8-0.9-0.9
	c-15.7-4.4-24.4-16.7-22.3-31.3c2-13.9,14-23.5,29.6-23.6c6.5,0,13-0.1,19.5,0.1c3,0.1,4.3-0.9,5.2-3.9c4.4-15.2,8.9-30.3,13.7-45.4
	c7.7-24.4,31.8-42.4,57.1-42.4c69.3-0.1,138.6-0.1,207.9,0c25.5,0,49.5,18.2,56.9,42.6c4.5,14.8,9,29.6,13.3,44.4
	c1,3.5,2.4,4.9,6.2,4.7c7-0.3,14-0.2,21,0c14.3,0.4,26,10.8,27.5,24.2c1.7,15-6.8,26.9-21.8,30.6c-0.5,0.1-0.9,0.5-1.6,0.9
	c16.1,11.4,23,20.2,27,34.4C583,350.2,583.7,353.8,584.5,357.3z M514.4,287.8c-0.6-2.3-1-3.9-1.4-5.4c-6.1-21.9-12.3-43.9-18.4-65.8
	c-5.7-20.6-22.7-33.5-44.2-33.5c-38.3,0-76.6,0-115,0c-29.7,0-59.3-0.1-89,0c-19.6,0.1-36.8,13.3-42.1,32.2
	c-6.4,22.7-12.8,45.5-19.1,68.2c-0.4,1.3-0.6,2.7-0.9,4.4C294.5,287.8,404.1,287.8,514.4,287.8z M276.8,398.5
	c0,10.5,0.3,20.5-0.1,30.4c-0.2,4.8,1.2,6.1,6.1,6.1c44.4-0.2,88.9-0.1,133.3-0.1c1.2,0,2.4,0.3,3.5-0.1c1-0.4,2.4-1.5,2.5-2.3
	c0.2-11.3,0.1-22.5,0.1-34.1C373.5,398.5,325.5,398.5,276.8,398.5z M511.3,349.2c-15.3,0.1-27.6,12.5-27.4,27.7
	c0.2,15.5,12.3,27.4,27.8,27.4c15.3-0.1,27.6-12.6,27.5-27.8C539,361.2,526.7,349.1,511.3,349.2z M188,349.2
	c-15.4,0-27.5,12.3-27.5,27.7c0.1,15.3,12.6,27.5,27.9,27.4c15-0.1,27.3-12.8,27.2-28.2C215.5,361.1,203.2,349.1,188,349.2z"/>
</svg>
