<?xml version="1.0" encoding="utf-8"?>
<!-- Generator: Adobe Illustrator 21.1.0, SVG Export Plug-In . SVG Version: 6.00 Build 0)  -->
<svg version="1.1" id="圖層_1" xmlns="http://www.w3.org/2000/svg" xmlns:xlink="http://www.w3.org/1999/xlink" x="0px" y="0px"
	 viewBox="0 0 700 700" style="enable-background:new 0 0 700 700;" xml:space="preserve">
<style type="text/css">
	.st0{fill:#FFFFFF;}
</style>
<path class="st0" d="M50,412.2c0-3,0-6,0-9c4.5-10.9,12.8-14.2,24.2-14.1c53.8,0.3,107.6,0.2,161.4,0.2c1.9,0,3.8,0,5.8,0
	c-1.8-30.1,5.9-56.6,24.7-79.3c18.7-22.6,43-35.3,71.9-39.7c-2.2,0-4.3,0-6.5,0c-23.3,0-46.6,0-70,0c-8.1,0-13.4-6-12.4-13.4
	c0.8-6.4,5.9-10.2,13.8-10.2c23.5,0,47,0,70.5,0c2,0,3.9,0,6.5,0c0-2.4,0-4.1,0-5.9c0-21.5,0.3-43-0.1-64.5
	c-0.1-8.1,2.5-13.5,10.3-16c1,0,2,0,3,0c7.9,2.4,10.6,7.8,10.4,15.9c-0.3,21.5-0.1,43-0.1,64.5c0,1.8,0,3.6,0,6c2.6,0,4.5,0,6.5,0
	c23.8,0,47.7-0.1,71.5,0c8,0,13,5,12.9,12.2c-0.1,6.9-5.2,11.5-13,11.5c-17,0-34,0-51,0c-9.7,0-19.3,0-29,0
	c29.3,4.2,53.8,16.9,72.7,39.8c18.8,22.9,26.5,49.4,24.5,79.2c2.5,0,4.5,0,6.4,0c54,0,108,0.2,162-0.1c11.1-0.1,19,3.6,23.2,14.1
	c0,3,0,6,0,9c-3.9,10.4-11.4,14.6-22.5,14.2c-14-0.5-28-0.1-42-0.1c-2.8,0-5.5,0-8.7,0c5.8,22.6,0.6,41.2-19.1,53.6
	c-15.8,10-32.6,9.6-48-0.9c-18.8-12.7-23.1-31.1-17.9-52.8c-12.7,0-25.2,0.2-37.6-0.1c-4.3-0.1-6.7,1-8.9,5
	c-38.7,71-138.7,76-184.4,9.5c-3.2-4.7-5.3-11.6-9.8-13.8c-4.8-2.4-11.7-0.6-17.7-0.6c-8.1,0-16.2,0-24.9,0
	c4.3,14.9,2.7,28.5-5.9,40.7c-8.8,12.4-21.1,18.8-36.2,19c-12.9,0.2-24.2-4.5-33-14.1c-12-12.9-14.8-28.2-10-45.6c-2.4,0-4.2,0-6,0
	c-14.8,0-29.7-0.4-44.5,0.1C61.8,426.9,54,422.7,50,412.2z M352.4,351.5c13.3,0,26.7,0,40,0c7,0,11.4-3.9,11.4-9.8
	s-4.5-9.9-11.4-9.9c-26.7,0-53.3,0-80,0c-7.4,0-11.7,3.8-11.6,10.1c0.1,6,4.3,9.6,11.5,9.6C325.8,351.5,339,351.5,352.4,351.5z"/>
</svg>
