<?xml version="1.0" encoding="utf-8"?>
<!-- Generator: Adobe Illustrator 21.1.0, SVG Export Plug-In . SVG Version: 6.00 Build 0)  -->
<svg version="1.1" id="圖層_1" xmlns="http://www.w3.org/2000/svg" xmlns:xlink="http://www.w3.org/1999/xlink" x="0px" y="0px"
	 viewBox="0 0 700 700" style="enable-background:new 0 0 700 700;" xml:space="preserve">
<style type="text/css">
	.st0{fill:#FFFFFF;}
</style>
<path class="st0" d="M485,140.3h-91.5c-7.5-24.9-33.8-39.3-58.7-31.8c-15.4,4.5-27.4,16.4-31.8,31.8h-88c-8,0-14.4,6.5-14.4,14.4
	s6.5,14.4,14.4,14.4h89c8.5,24.4,34.8,37.8,59.7,29.3c13.9-4.5,24.9-15.4,29.3-29.3h92c8,0,14.4-6.5,14.4-14.4
	C499.5,146.8,493,140.3,485,140.3z M348.3,188.1c-18.9,0-34.3-15.4-34.3-34.3s15.4-34.3,34.3-34.3s34.3,15.4,34.3,34.3
	C382.1,172.7,367.2,188.1,348.3,188.1z"/>
<path class="st0" d="M336.8,371.6h22.9c18.9,0,34.3,15.4,34.3,34.3v153.2c0,18.9-15.4,34.3-34.3,34.3h-22.9
	c-18.9,0-34.3-15.4-34.3-34.3V405.4C302.5,386.5,317.9,371.6,336.8,371.6z"/>
<path class="st0" d="M417.4,201.5H279.1c-39.8,0-71.6,32.3-71.6,71.6v174.6c0,39.8,32.3,71.6,71.6,71.6h10.4V405.4
	c0-25.9,21.4-47.2,47.2-47.2h22.9c25.9,0,47.2,21.4,47.2,47.2v113.9h10.4c39.8,0,71.6-32.3,71.6-71.6V273.1
	C489,233.9,457.2,201.5,417.4,201.5z M423.4,286.1h-50.2c-6.5,0-11.4-5-11.4-11.4c0-6.5,5-11.4,11.4-11.4h50.7
	c6.5,0,11.4,5,11.4,11.4C434.8,281.1,429.8,286.1,423.4,286.1z"/>
</svg>
