<?xml version="1.0" encoding="utf-8"?>
<!-- Generator: Adobe Illustrator 21.1.0, SVG Export Plug-In . SVG Version: 6.00 Build 0)  -->
<svg version="1.1" id="圖層_1" xmlns="http://www.w3.org/2000/svg" xmlns:xlink="http://www.w3.org/1999/xlink" x="0px" y="0px"
	 viewBox="0 0 700 700" style="enable-background:new 0 0 700 700;" xml:space="preserve">
<style type="text/css">
	.st0{fill:#FFFFFF;}
</style>
<path class="st0" d="M222.8,486.3c0,1.8,0,3.6,0,5.4c-0.1,7.8,0.3,15.6-0.4,23.3c-1,12-11.2,20.9-23.2,21.1
	c-10.1,0.1-20.2,0.1-30.3,0c-13.1-0.2-23.5-10.8-23.5-23.8c0-8.4-0.1-16.7,0-25.1c0-1.6-0.3-2.3-2-2.8
	c-24.8-6.6-42.2-26.6-45.4-52.2c-0.2-1.7-0.2-3.5-0.2-5.2c0-17.7-0.1-35.3,0-53c0.1-29.1,23.6-55.3,52.5-58.6
	c2.6-0.3,5.3-0.5,8.2-0.8c-0.3-0.7-0.4-1.3-0.7-1.6c-2.5-1.9-5-3.6-8.5-3.5c-11.1,0.3-22.2,0.2-33.4,0.1c-1.2,0-2.7-0.8-3.7-1.6
	c-5.7-4.6-8.6-10.6-9.7-17.8c-0.4-2.4-0.6-4.6,0.5-6.9c1.4-3.3,2.6-6.7,3.6-9.6c8.2,0,16-0.1,23.8,0.1c6.6,0.1,13.1,0.6,19.6,0.7
	c2.3,0,3.8,0.9,5.1,2.6c2.6,3.3,5.4,6.4,8.3,9.9c1.5-6.1,2.8-11.7,4.3-17.4c5.9-22.1,13.2-43.8,24.5-63.9
	c6.9-12.3,15-23.6,26.6-31.8c8-5.6,16.7-8.6,26.6-8.5c11.2,0.2,22.4,0,33.6,0.1c1.6,0,2.4-0.5,3.2-1.9c5-9.1,10.1-18.2,15.3-27.3
	c0.7-1.3,1.9-2.5,3.1-3.3c4.3-3.1,8.8-6,13.3-8.9c0.8-0.5,1.9-1.1,2.8-1c22.7,0.4,45.3,0.8,68,1.4c2.6,0.1,5.3,1.3,7.8,2.3
	c3.8,1.5,8.3,2.4,11.2,5.1c2.9,2.6,4.2,7,6.2,10.6c4.1,7.6,8.2,15.1,12.3,22.7c0.8,1.4,1.7,1.9,3.2,1.9c10.6,0.1,21.2,0.3,31.8,0.3
	c11.6,0.1,21.3,5.1,30,12.2c13.3,10.8,22.3,24.9,29.6,40.2c9.5,20,15.3,41.2,19.7,62.9c0.5,2.6,1,5.2,1.7,8.3
	c3.4-4.4,6.5-8.5,9.8-12.5c0.6-0.7,1.6-1.7,2.3-1.7c13.8-0.6,27.5-1.1,41.4-1.6c1.5,4.4,2.9,8.6,4.3,12.8c0.2,0.6,0.2,1.3,0.1,2
	c-0.3,1.3-0.8,2.7-0.9,4c-0.5,6.5-3.7,11.4-8.1,15.9c-1.2,1.2-2.4,1.9-4.2,1.9c-10-0.1-20,0.1-30-0.1c-3.1-0.1-5.3,0.9-7.4,3.2
	c3.4,0.6,6.6,1,9.8,1.8c24.8,5.6,43.5,26.3,46.6,51.6c0.3,2.4,0.5,4.8,0.5,7.2c0.1,16.7,0.2,33.5,0,50.2c-0.2,21.8-9.7,38.7-27.5,51
	c-1.6,1.1-2.3,2.1-2.3,4.1c0.1,10.5,0.1,20.8,0.1,31.3c0,13.9-10.5,24.4-24.4,24.4c-9.6,0-19.1,0-28.7,0
	c-15.7,0-24.9-13.2-24.3-24.4c0.4-8.3,0.1-16.7,0.1-25.3C404.3,486.3,313.7,486.3,222.8,486.3z M516.7,308.7c0-0.7,0.1-1,0-1.3
	c-2.4-18.2-6.5-36.1-12.8-53.3c-6.1-16.5-13.8-32.1-26.1-45c-11.5-12.2-25.3-19.7-42.3-19.9c-36.1-0.6-72.2-0.7-108.3-1.1
	c-17-0.2-34-0.1-50.9-0.9c-11.9-0.6-22.9,1-33.1,7.4c-13.5,8.4-23.2,20.1-30.7,33.8c-9.2,16.8-14.5,34.9-18,53.5
	c-1.4,8.1-2.5,16.2-3.8,24.7C299.7,307.4,408.1,308,516.7,308.7z M358.7,470.2c22,0,44.1,0,66.2,0c12.7,0,21.9-10.5,20.2-22.7
	c-1.4-10.2-9.7-17.2-20.8-17.2c-43.5-0.1-87-0.1-130.6,0c-4.6,0-8.8,1-12.7,3.7c-7.1,5-10.1,13.9-7.7,22.1
	c2.5,8.4,10.2,14.1,19.2,14.1C314.6,470.2,336.6,470.2,358.7,470.2z M171.3,408.4c6.4-0.1,11.6-1.2,16.5-3.7
	c18.6-9.3,22.8-32.1,8.5-46.4c-13-13-35.5-13-48.5,0.1c-10.7,10.8-11.5,26.7-1.7,38.3C152.9,404.7,161.8,408.1,171.3,408.4z
	 M527.8,402.4c5.6,0.1,10.9-1.2,15.9-3.8c18.6-9.4,22.5-32.7,7.9-46.7c-12.2-11.6-32-12.6-45.2-2.1c-12.6,10-15.2,27.1-5.6,39.5
	C507.5,398.2,516.8,402.2,527.8,402.4z M476.9,400.3c0-4,0-7.8,0-11.6c-84.1,0-168.1,0-252.1,0c0,3.9,0,7.7,0,11.6
	C308.8,400.3,392.8,400.3,476.9,400.3z M226.7,364.3c82.8,0,165.4,0,248.2,0c0-2.6,0-5,0-7.6c-82.8,0-165.4,0-248.2,0
	C226.7,359.2,226.7,361.6,226.7,364.3z M473,372.8c-82.3,0-164.3,0-246.2,0c0,2.7,0,5.1,0,7.5c82.2,0,164.1,0,246.2,0
	C473,377.7,473,375.4,473,372.8z M356.6,135.6c4.1,6.3,7.9,12,11.7,17.7c-2.7,4-5.3,8-8,12.1c-3.6-9.6-7.1-18.7-10.4-27.9
	c-0.7-1.9-1.6-2.4-3.5-2.4c-1.8,0.1-2.9,0.3-3.6,2.3c-2.4,6.8-5,13.5-7.6,20.3c-1.8,4.7-3.5,9.3-5.3,14.3c2.1,0,3.8-0.1,5.5,0.1
	c1.8,0.2,2.6-0.5,3.2-2.2c0.9-2.8,2-5.6,3.1-8.5c2.1,0,4.1,0.2,6.1-0.1c2.6-0.3,3.9,0.6,4.6,3.1s1.2,5.9,3.1,7.1
	c1.8,1.3,5.1,0.3,7.8,0.5c1.6,0.1,2.5-0.5,3.3-1.8c2.1-3.3,4.3-6.5,6.6-10c2.3,3.6,4.4,6.8,6.5,10c0.5,0.7,1.1,1.7,1.8,1.7
	c4.3,0.2,8.5,0.1,12.8,0.1c0-12.3,0-24.1,0-36.2c-4.2,0-8.2-0.1-12.3,0.1c-1,0.1-2.2,0.8-2.8,1.6c-2.1,3-4,6.2-6.1,9.5
	c-2.2-3.4-4.1-6.5-6.2-9.5c-0.5-0.7-1.3-1.4-2.1-1.5C362.1,135.5,359.6,135.6,356.6,135.6z M326.1,171.7c0-9.5,0-18.7,0-28.1
	c3.6,0,7,0,10.5,0c0-2.8,0-5.2,0-7.8c-9.4,0-18.7,0-28,0c0,2.6,0,5.2,0,7.9c3.5,0,6.8,0,10.5,0c0,9.5,0,18.7,0,28.1
	C321.4,171.7,323.5,171.7,326.1,171.7z"/>
</svg>
