<?xml version="1.0" encoding="utf-8"?>
<!-- Generator: Adobe Illustrator 21.1.0, SVG Export Plug-In . SVG Version: 6.00 Build 0)  -->
<svg version="1.1" id="圖層_1" xmlns="http://www.w3.org/2000/svg" xmlns:xlink="http://www.w3.org/1999/xlink" x="0px" y="0px"
	 viewBox="0 0 700 700" style="enable-background:new 0 0 700 700;" xml:space="preserve">
<style type="text/css">
	.st0{fill:#FFFFFF;}
</style>
<path class="st0" d="M326.9,84c15.4,0,30.7,0,46.1,0c11.2,0.8,22.3,1.6,33.5,2.6c28.5,2.6,56.4,7.5,83.1,17.9
	c24.1,9.4,46.4,21.5,59.9,45.1c0,105.8,0,211.6,0,317.5c-0.2,0.4-0.6,0.7-0.7,1.1c-5.5,23.9-21.9,36.9-46.6,36.9
	c-101.6,0-203.3,0-304.9,0c-28.1,0-46.8-18.8-46.8-47c0-99.4,0.1-198.6-0.2-297.9c0-9.4,2.8-16.6,8.9-23.1c2.9-3.1,5.9-6.2,9.2-9
	c12.5-10.7,27-18,42.2-23.8c29.8-11.2,60.9-16.1,92.6-18.7C311.1,85.1,319,84.6,326.9,84z M349.9,172.7c-51,0-102,0-152.9,0
	c-15.3,0-24.3,9-24.3,24.2c0,35.6,0,71.2,0,106.8c0,15.2,9,24.2,24.3,24.2c102,0,203.9,0,305.8,0c15.6,0,24.6-9,24.6-24.4
	c0-35.4,0-71,0-106.4c0-15.5-9-24.4-24.6-24.4C451.9,172.7,400.9,172.7,349.9,172.7z M228.2,460.8c18.4,0,33.3-14.9,33.3-33.3
	s-14.9-33.3-33.3-33.3s-33.3,14.9-33.3,33.3C194.9,445.8,209.8,460.8,228.2,460.8z M438.7,427.3c-0.1,18.4,14.7,33.5,33,33.6
	c18.4,0.1,33.5-14.7,33.6-33c0.1-18.4-14.7-33.5-33-33.6C453.8,394.2,438.8,409,438.7,427.3z"/>
<path class="st0" d="M150.5,616c21.3-28.4,42.6-56.6,63.7-85.1c2.1-2.6,4-3.7,7.4-3.7c12.9,0.2,26,0.1,39.7,0.1
	c-15,29.9-29.6,59.3-44.3,88.7C194.9,616,172.7,616,150.5,616z"/>
<path class="st0" d="M483,616c-14.6-29.2-29.2-58.5-44.1-88.3c1.5-0.2,2.5-0.4,3.7-0.4c12.3,0,24.6,0.1,36.8-0.1
	c2.9,0,4.5,1,6.2,3.2c20.3,27.2,40.7,54.4,61.1,81.5c0.8,1.1,2,2.1,2.9,3.1c-1.1,0.3-2.4,0.8-3.6,0.8C525,616,504.1,616,483,616z"/>
</svg>
