<?xml version="1.0" encoding="utf-8"?>
<!-- Generator: Adobe Illustrator 21.1.0, SVG Export Plug-In . SVG Version: 6.00 Build 0)  -->
<svg version="1.1" id="圖層_1" xmlns="http://www.w3.org/2000/svg" xmlns:xlink="http://www.w3.org/1999/xlink" x="0px" y="0px"
	 viewBox="0 0 133 61" style="enable-background:new 0 0 133 61;" xml:space="preserve">
<style type="text/css">
	.st0{fill:#48EDED;}
	.st1{fill:#FF8D4D;}
</style>
<path class="st0" d="M81.1,37.5c0,2.1-0.3,4.1-1,6c-0.6,2-1.6,3.7-2.8,5.1c-1.4,1.6-2.9,2.8-4.7,3.5c-1.8,0.8-3.8,1.1-6,1.1
	c-1.8,0-3.6-0.4-5.3-1.1c-1.7-0.7-3.1-1.7-4.4-3.1c-1.3-1.3-2.3-2.9-3.1-4.8s-1.1-4.1-1.1-6.4c0-4.5,1.3-8.3,4-11.2
	c2.7-2.9,6.1-4.4,10.4-4.4c4.1,0,7.4,1.4,10.1,4.1C79.8,29.3,81.1,32.9,81.1,37.5z M75,37.6c0-1.5-0.2-3.1-0.5-4.7
	c-0.3-1.6-0.8-3.1-1.3-4.2c-0.6-1.2-1.5-2.2-2.4-2.9c-1-0.8-2.3-1.1-3.8-1.1c-1.5,0-2.8,0.4-3.9,1.1c-1.1,0.8-1.9,1.8-2.6,3.1
	c-0.6,1.2-1.1,2.6-1.3,4.1c-0.2,1.5-0.4,3-0.4,4.4c0,1.9,0.2,3.6,0.5,5.2s0.8,3.1,1.5,4.3c0.7,1.2,1.5,2.2,2.5,3
	c1,0.7,2.3,1.1,3.8,1.1c2.4,0,4.4-1.2,5.8-3.6C74.3,45,75,41.7,75,37.6z"/>
<path class="st0" d="M117.4,52.4h-14.2v-1.9c0.5-0.1,0.9-0.1,1.5-0.2c0.5-0.1,1-0.2,1.4-0.2c0.5-0.2,1-0.5,1.2-0.9
	c0.2-0.5,0.4-1,0.4-1.8v-15c0-2.1-0.5-3.7-1.5-4.7c-1-1.1-2.1-1.7-3.6-1.7c-1.1,0-2,0.2-2.8,0.5c-0.8,0.3-1.6,0.7-2.3,1.2
	c-0.6,0.5-1.1,0.9-1.5,1.5c-0.4,0.5-0.7,0.9-0.8,1.2v16.8c0,0.7,0.2,1.2,0.4,1.7c0.3,0.5,0.7,0.8,1.2,1c0.4,0.2,0.8,0.3,1.4,0.5
	c0.5,0.1,1,0.2,1.5,0.2v1.9H85.3v-1.9c0.5-0.1,0.9-0.1,1.4-0.2c0.5-0.1,0.9-0.2,1.2-0.2c0.5-0.2,1-0.5,1.2-0.9
	c0.2-0.5,0.4-1,0.4-1.8v-18c0-0.7-0.2-1.3-0.5-1.8c-0.3-0.5-0.7-1-1.2-1.4c-0.4-0.2-0.8-0.4-1.3-0.5c-0.5-0.1-1.1-0.2-1.7-0.2v-1.9
	l9.6-0.6l0.4,0.4v4.1H95c0.5-0.5,1.1-1.1,1.8-1.7c0.7-0.6,1.4-1.2,2-1.6c0.8-0.5,1.6-0.8,2.6-1.1s2.1-0.5,3.4-0.5
	c2.8,0,4.9,0.8,6.2,2.6c1.4,1.8,2,4.1,2,7v15.2c0,0.7,0.2,1.2,0.4,1.7c0.2,0.5,0.6,0.8,1.2,1c0.5,0.2,0.8,0.3,1.2,0.4
	c0.3,0.1,0.8,0.2,1.5,0.2v1.9H117.4z"/>
<path class="st1" d="M15.9,37.2c0.1-0.5,0.2-1,0.3-1.5c0.4-1.2,0.9-2.4,1.6-3.4c1.3-2.1,3.2-4,5.4-5.3c1-0.6,0.6-1.2,0.2-2
	c-1.8-2.9-3.3-5.9-2.4-9.5c0.9-4.3,4.1-7.4,8.5-8C33.8,6.8,38,9,40,12.8c2.1,4.3,1.5,8.6-1.8,11.9c-1,1-2.1,1.9-3.4,2.6
	c-1,0.5-0.9,1-0.3,1.7c2.7,3.1,5.3,6.3,7.9,9.5c0.6,0.8,1,0.5,1.4-0.2c0.5-0.9,1.1-1.8,1.7-2.8c0.4-0.8,0.8-0.8,1.5-0.2
	c1,1.1,2,2.2,3,3.3c0.5,0.5,0.5,1,0.1,1.5c-0.4,0.5-0.8,1.1-1.1,1.7c-1.7,2.2-1.7,2.2,0.2,4.4c1.5,1.8,5.3,6.7,5.3,6.7h-7.8
	c0,0-1.8-2-2.1-2.4c-1.5-1.8-1.5-1.8-3.5-0.5c-4.4,2.9-9.2,4.4-14.5,3.1c-6-1.5-10.7-7-10.6-13.2C15.8,38.9,15.8,38.1,15.9,37.2z
	 M30.2,47.5c2.8-0.1,5.1-1.2,7.3-2.8c1.1-0.8,1.1-1.5,0.2-2.4c-2.4-2.8-4.8-5.7-7.3-8.7c-2.8-3.3-3-3.3-6.1-0.2
	c-2.4,2.7-3.4,5.6-2,9C23.6,45.6,26.6,47.5,30.2,47.5z M31.2,13.3c-2.7,0-4.7,2-4.5,4.3c0.2,2.1,1.4,3.6,2.8,5
	c0.4,0.4,0.8,0.4,1.3,0.2c1.3-0.6,2.6-1.2,3.5-2.4c1.1-1.5,1.4-3,0.6-4.7C34.1,14,32.7,13.4,31.2,13.3z"/>
</svg>
