<?xml version="1.0" encoding="utf-8"?>
<!-- Generator: Adobe Illustrator 21.1.0, SVG Export Plug-In . SVG Version: 6.00 Build 0)  -->
<svg version="1.1" xmlns="http://www.w3.org/2000/svg" xmlns:xlink="http://www.w3.org/1999/xlink" x="0px" y="0px"
	 viewBox="0 0 375 207.2" style="enable-background:new 0 0 375 207.2;" xml:space="preserve">
<style type="text/css">
	.st0{fill:#EDEBD9;}
	.st1{fill:#211F20;}
	.st2{fill:#F4AE9D;}
	.st3{fill:#EC7D69;}
	.st4{fill:#339799;}
	.st5{fill:#ADD1C0;}
	.st6{fill:#F79E1F;}
	.st7{fill:#6FC6C6;}
	.st8{fill:#C8E8D8;}
	.st9{fill:#A1AFFF;}
	.st10{fill:#ACD1BF;}
	.st11{fill:#EDE5FF;}
	.st12{fill:#F6F5FC;}
</style>
<g id="圖層_2">
	<rect x="0.2" y="0" class="st0" width="375" height="207"/>
</g>
<g id="圖層_1">
	<g>
		<g id="圖層_1_1_">
			<g id="圖層_1_2_">
				<g>
					<rect x="166.6" y="16.3" class="st0" width="57.3" height="104.3"/>
				</g>
			</g>
			<g>
				<g>
					<path class="st1" d="M225.7,100c0,0-0.1,0-0.1,0c-0.2-0.1-0.3-0.2-0.3-0.4l-0.4-11.9c0-0.1,0-0.2,0.1-0.2
						c0.1-0.1,1.3-1.8,4.4-4c1.8-1.3,3.8-1.5,5-0.7c0.6,0.4,1.6,1.6,0.9,4.2c-1.2,4.3-9,12.5-9.3,12.9
						C225.9,100,225.8,100,225.7,100z M225.7,87.8l0.4,10.9c1.9-2.1,7.5-8.4,8.5-11.9c0.4-1.6,0.2-2.8-0.6-3.4
						c-0.9-0.7-2.6-0.4-4.1,0.7C227.2,85.9,226,87.4,225.7,87.8z"/>
				</g>
			</g>
			<g>
				<g>
					<path class="st2" d="M226.5,21.3v-1c0-3.6-3-6.6-6.6-6.6h-49.1c-3.6,0-6.6,3-6.6,6.6v3.9h-1.5V28h1.5v2h-1.5v3.7h1.5v82.8
						c0,3.6,3,6.6,6.6,6.6h49.1c3.6,0,6.6-3,6.6-6.6V33.2h1.1V21.3H226.5z M223.3,116.5c0,1.9-1.5,3.4-3.4,3.4h-49.1
						c-1.9,0-3.4-1.5-3.4-3.4V20.3c0-1.9,1.5-3.4,3.4-3.4h11.5v0.3c0,0.8,0.6,1.4,1.4,1.4h24.6c0.8,0,1.4-0.6,1.4-1.4v-0.3h10.2
						c1.9,0,3.4,1.5,3.4,3.4V116.5z"/>
				</g>
			</g>
			<g>
				<g>
					<path class="st0" d="M203.1,17h-16c-0.3,0-0.6-0.3-0.6-0.6l0,0c0-0.3,0.3-0.6,0.6-0.6h16c0.3,0,0.6,0.3,0.6,0.6l0,0
						C203.7,16.7,203.4,17,203.1,17z"/>
				</g>
				<g>
					<circle class="st0" cx="206.6" cy="16.4" r="1"/>
				</g>
			</g>
			<g>
				<g>
					<path class="st1" d="M169.5,171.1C169.5,171.1,169.5,171.1,169.5,171.1c-14.6-2.7-22-7.9-25.6-11.8c-4-4.2-4.5-7.8-4.5-7.9
						c0-0.2,0.1-0.4,0.3-0.4c0.2,0,0.4,0.1,0.4,0.3l0,0c0,0,0.5,3.5,4.3,7.5c3.6,3.8,10.8,8.8,25.1,11.5c0.2,0,0.4,0.3,0.3,0.4
						C169.9,170.9,169.7,171.1,169.5,171.1z"/>
				</g>
			</g>
			<g>
				<g>
					<path class="st1" d="M195.2,136.8c0.1-0.2,0.2-0.3,0.3-0.4c0.1-0.2,0.1-0.4-0.1-0.5l0,0c-0.2-0.1-0.4-0.1-0.5,0.1
						c-0.1,0.2-0.2,0.3-0.3,0.4c-0.1,0.2-0.1,0.4,0.1,0.5l0,0C194.8,137,195.1,137,195.2,136.8z"/>
				</g>
				<g>
					<path class="st1" d="M196.8,134.7c4.4-5.6,8.1-10.5,9.2-11.8h-1c-1.4,1.8-4.8,6.2-8.8,11.3c-0.1,0.2-0.1,0.4,0.1,0.5l0,0
						C196.4,134.9,196.7,134.9,196.8,134.7z"/>
				</g>
				<g>
					<path class="st1" d="M147.5,128c0.6,4.5-0.4,10.1-1.1,11.5c-0.3,0.5-1.1,1.9-2.1,3.6c-0.1,0.2,0,0.4,0.2,0.5l0,0
						c0.2,0.1,0.4,0,0.5-0.2c1-1.7,1.8-3.1,2.1-3.7c0.8-1.5,1.8-7.3,1.2-12c-0.1-0.7-0.2-1.6-0.4-2.8c-0.9-6.8-2.9-21-2.5-25.1
						c0.1-1.3,0.2-3,0.3-4.7c0.2-4.5,0.5-10.1,1.5-14.8c1.4-6.9,4-14.4,6.4-18.7c2.5-4.4,7.8-15.2,8.4-16.9c0.8-2.3,2.1-2.3,2.9-2.1
						c1.5,0.3,3.6,4.9,3.6,7.8c0,3.6-1.6,8.2-2.5,10.6c-1.4,3.5-3.2,13.4-3,17.6c0.1,1.8,0.6,2.9,1.3,3.7V81
						c-0.3-0.6-0.4-1.3-0.5-2.2c-0.2-4.1,1.6-13.8,2.9-17.3c1-2.5,2.6-7.2,2.6-10.9c0-3.2-2.2-8.1-4.2-8.6c-1.7-0.4-3,0.5-3.8,2.6
						c-0.5,1.5-5.8,12.2-8.4,16.8c-2.4,4.3-5.1,11.9-6.5,18.9c-1,4.9-1.3,10.5-1.5,15c-0.1,1.7-0.2,3.3-0.3,4.6
						c-0.3,4.2,1.6,18.4,2.6,25.2C147.3,126.3,147.5,127.3,147.5,128z"/>
				</g>
				<g>
					<path class="st1" d="M184.5,150.2c-0.2-0.1-0.4-0.1-0.5,0.1c-1.8,2.4-3.2,4.4-4,5.5c-3.1,4.8-6.8,10.5-7.9,12.2
						c-0.8-1.1-3-3.8-7.1-6.8c-4.6-3.5-12.6-8-24.5-10.1c0.5-0.9,1.7-2.8,2.9-4.8c0.1-0.2,0-0.4-0.2-0.5l0,0c-0.2-0.1-0.4,0-0.5,0.2
						c-1.6,2.7-3.1,5.3-3.1,5.3c-0.1,0.1-0.1,0.3,0,0.4c0.1,0.1,0.2,0.2,0.3,0.2c12,2,20,6.5,24.6,10c5,3.8,7.2,7.1,7.3,7.2
						c0.1,0.1,0.2,0.2,0.3,0.2l0,0c0.1,0,0.3-0.1,0.3-0.2c0-0.1,4.5-7.1,8.2-12.7c0.7-1.1,2.1-3.1,4-5.5
						C184.7,150.5,184.7,150.3,184.5,150.2L184.5,150.2z"/>
				</g>
			</g>
			<g>
				<g>
					<path class="st3" d="M220.9,149.5h-3c-0.2,0-0.4-0.2-0.4-0.4c0-0.2,0.2-0.4,0.4-0.4h3c0.2,0,0.4,0.2,0.4,0.4
						C221.3,149.3,221.2,149.5,220.9,149.5z"/>
				</g>
				<g>
					<path class="st3" d="M219.4,151c-0.2,0-0.4-0.2-0.4-0.4v-3c0-0.2,0.2-0.4,0.4-0.4c0.2,0,0.4,0.2,0.4,0.4v3
						C219.8,150.8,219.6,151,219.4,151z"/>
				</g>
			</g>
			<g>
				<g>
					<path class="st3" d="M226.5,154.4c-0.1,0-0.2,0-0.2-0.1l-1.6-1.6c-0.1-0.1-0.1-0.3,0-0.4c0.1-0.1,0.3-0.1,0.4,0l1.6,1.6
						c0.1,0.1,0.1,0.3,0,0.4C226.7,154.4,226.6,154.4,226.5,154.4z"/>
				</g>
				<g>
					<path class="st3" d="M224.9,154.4c-0.1,0-0.2,0-0.2-0.1c-0.1-0.1-0.1-0.3,0-0.4l1.6-1.6c0.1-0.1,0.3-0.1,0.4,0
						c0.1,0.1,0.1,0.3,0,0.4l-1.6,1.6C225.1,154.4,225,154.4,224.9,154.4z"/>
				</g>
			</g>
			<g>
				<circle class="st4" cx="219.4" cy="159.6" r="1.4"/>
			</g>
			<g>
				<circle class="st5" cx="178.2" cy="51.6" r="1.4"/>
			</g>
			<g>
				<circle class="st5" cx="178.2" cy="41" r="1.4"/>
			</g>
			<g>
				<polygon class="st6" points="184.2,54 187,56.9 188.1,53 				"/>
			</g>
		</g>
		<g>
			<path class="st7" d="M223.7,32.6c0,0-2.6-9.2,1.8-14.8C225.5,17.8,228,24.5,223.7,32.6z"/>
		</g>
		<g>
			<path class="st7" d="M227.8,27.8c0,0-0.6-8.5,4.1-12.7C231.9,15.1,233,21.5,227.8,27.8z"/>
		</g>
		<g>
			<path class="st7" d="M232.7,23.7c0,0,0.2-7.3,4.6-10.4C237.3,13.3,237.6,18.8,232.7,23.7z"/>
		</g>
		<g>
			<path class="st7" d="M233.6,23.2c0,0,6.8-2.5,11.4,0.4C244.9,23.6,240,26,233.6,23.2z"/>
		</g>
		<g>
			<path class="st7" d="M228.6,27.5c0,0,7.8-2.9,13,0.5C241.5,28,235.9,30.7,228.6,27.5z"/>
		</g>
		<g>
			<path class="st7" d="M224.1,31.8c0,0,8.4-3.1,13.9,0.5C238,32.4,231.9,35.3,224.1,31.8z"/>
		</g>
		<g>
			<path class="st7" d="M236.5,21.4c0,0,3.5-5.8,8.5-6.3C245,15.1,242.7,19.7,236.5,21.4z"/>
		</g>
		<g>
			<path class="st7" d="M237.8,20.1c-11.7,6.6-20.4,17.8-23.8,30.8c-0.1,0.6,0.7,0.9,0.8,0.3c3.3-12.7,11.9-23.8,23.3-30.2
				C238.7,20.6,238.3,19.8,237.8,20.1L237.8,20.1z"/>
		</g>
		<g>
			<path class="st4" d="M154,114c0,0-0.5-8.7-5.9-12.2C148.1,101.8,147.9,108.4,154,114z"/>
		</g>
		<g>
			<path class="st4" d="M149.1,111.1c0,0-2-7.6-7.4-9.7C141.7,101.4,142.7,107.2,149.1,111.1z"/>
		</g>
		<g>
			<path class="st4" d="M143.6,109.1c0,0-2.3-6.3-7.1-7.6C136.5,101.4,137.9,106.3,143.6,109.1z"/>
		</g>
		<g>
			<path class="st4" d="M142.7,108.8c0,0-6.7-0.1-9.7,3.8C133,112.6,138,113.2,142.7,108.8z"/>
		</g>
		<g>
			<path class="st4" d="M148.3,111.1c0,0-7.6-0.2-11.1,4.3C137.2,115.4,142.9,116,148.3,111.1z"/>
		</g>
		<g>
			<path class="st4" d="M153.5,113.5c0,0-8.2-0.2-11.9,4.6C141.6,118.2,147.7,118.8,153.5,113.5z"/>
		</g>
		<g>
			<path class="st4" d="M139.6,108.1c0,0-4.8-4-9.2-2.9C130.4,105.3,133.7,108.6,139.6,108.1z"/>
		</g>
		<g>
			<path class="st4" d="M138.1,107.4c12.1,2.2,23,9.3,29.8,19.5c0.3,0.4-0.4,1-0.6,0.5c-6.7-10-17.4-17.1-29.2-19.2
				C137.5,108.1,137.6,107.3,138.1,107.4L138.1,107.4z"/>
		</g>
		<g>
			<path class="st8" d="M183.3,93.9c-0.9,0-1.7,0.2-2.4,0.6c-0.6-2.5-2.9-4.4-5.7-4.4c0,0,0,0,0,0c-0.5-3.5-3.5-6.2-7.1-6.2
				c-4,0-7.2,3.2-7.2,7.2c0,0.6,0.1,1.2,0.2,1.8c-1.8,0.1-3.4,1.3-4,2.9c-0.8-0.6-1.7-0.9-2.7-0.9c-2.3,0-4.2,1.7-4.5,3.9h39
				C188.3,96,186.1,93.9,183.3,93.9z"/>
		</g>
		<g id="XMLID_26_">
			<path class="st5" d="M203.1,78.9H202c-0.5,0-1,0.4-1,1v7.4c0,0.5,0.4,1,1,1h1.1V78.9z"/>
		</g>
		<g id="XMLID_25_">
			<path class="st9" d="M212.4,78.9h-8.9c-0.6,0-1.1,0.5-1.1,1.1v7.1c0,0.6,0.5,1.1,1.1,1.1h8.9c0.6,0,1.1-0.5,1.1-1.1V80
				C213.5,79.4,213,78.9,212.4,78.9z"/>
		</g>
		<g id="XMLID_24_">
			<polygon class="st5" points="216.3,81.5 213.5,80.2 213.5,86.8 216.3,85.6 			"/>
		</g>
		<g>
			<path class="st4" d="M201.1,85.3v1.9c0,0.5,0.4,1,1,1h1.1v-2.9L201.1,85.3L201.1,85.3z"/>
		</g>
		<g>
			<polygon class="st4" points="213.5,85.3 213.5,86.8 216.3,85.6 216.3,85.3 			"/>
		</g>
		<g id="XMLID_23_">
			<path class="st8" d="M212.4,78.9h-8.9c-0.6,0-1.1,0.5-1.1,1.1v7.1c0,0.6,0.5,1.1,1.1,1.1h8.9c0.6,0,1.1-0.5,1.1-1.1V80
				C213.5,79.4,213,78.9,212.4,78.9z"/>
		</g>
		<g>
			<path class="st7" d="M202.3,85.2v1.9c0,0.6,0.5,1.1,1.1,1.1h8.9c0.6,0,1.1-0.5,1.1-1.1v-1.9H202.3z"/>
		</g>
		<g>
			<path class="st8" d="M223.4,59h-52.5c-1.3,0-2.6,0.2-3.9,0.6c-4.6,1.4-11.9,4.3-12.5,8.2c-0.9,5.7,11.4,7.3,11.4,7.3h47.9
				c2.4,0,4.9-0.4,7.2-1.1l2.3-0.7V59z"/>
		</g>
		<g>
			<path class="st10" d="M213.9,72h-47.9c0,0-9.2-1.2-11.1-5.2c-0.2,0.3-0.3,0.6-0.3,1c-0.9,5.7,11.4,7.3,11.4,7.3h47.9
				c2.4,0,4.9-0.4,7.2-1.1l2.3-0.7v-3.1l-2.3,0.7C218.7,71.6,216.3,72,213.9,72z"/>
		</g>
		<g>
			<path class="st4" d="M167.4,62.4l-7.1-0.1c-1.5,0.8-2.9,1.6-3.9,2.6c4.5-0.2,6.5,1.9,6.5,1.9l4.5-1.5V62.4z"/>
		</g>
		<g id="XMLID_22_">
			<path class="st4" d="M220.1,62.4h1.5c0.4,0,0.7,0.3,0.7,0.6v1.8c0,0.4-0.3,0.7-0.6,0.7h-1.5c-0.4,0-0.7-0.3-0.7-0.6v-1.8
				C219.4,62.7,219.7,62.4,220.1,62.4z"/>
		</g>
		<g id="XMLID_21_">
			<path class="st4" d="M214.9,62.4h1.5c0.4,0,0.7,0.3,0.7,0.6v1.8c0,0.4-0.3,0.7-0.6,0.7H215c-0.4,0-0.7-0.3-0.7-0.6v-1.8
				C214.3,62.7,214.6,62.4,214.9,62.4z"/>
		</g>
		<g id="XMLID_20_">
			<path class="st4" d="M209.8,62.5h1.5c0.4,0,0.7,0.3,0.7,0.6v1.8c0,0.4-0.3,0.7-0.6,0.7h-1.5c-0.4,0-0.7-0.3-0.7-0.6v-1.8
				C209.2,62.8,209.5,62.5,209.8,62.5z"/>
		</g>
		<g id="XMLID_19_">
			<path class="st4" d="M204.7,62.5h1.5c0.4,0,0.7,0.3,0.7,0.6V65c0,0.4-0.3,0.7-0.6,0.7h-1.5c-0.4,0-0.7-0.3-0.7-0.6v-1.8
				C204,62.8,204.3,62.5,204.7,62.5z"/>
		</g>
		<g id="XMLID_18_">
			<path class="st4" d="M199.6,62.6h1.5c0.4,0,0.7,0.3,0.7,0.6V65c0,0.4-0.3,0.7-0.6,0.7h-1.5c-0.4,0-0.7-0.3-0.7-0.6v-1.8
				C198.9,62.9,199.2,62.6,199.6,62.6z"/>
		</g>
		<g id="XMLID_17_">
			<path class="st4" d="M194.4,62.6h1.5c0.4,0,0.7,0.3,0.7,0.6v1.8c0,0.4-0.3,0.7-0.6,0.7h-1.5c-0.4,0-0.7-0.3-0.7-0.6v-1.8
				C193.8,62.9,194.1,62.6,194.4,62.6z"/>
		</g>
		<g id="XMLID_16_">
			<path class="st4" d="M189.3,62.7h1.5c0.4,0,0.7,0.3,0.7,0.6v1.8c0,0.4-0.3,0.7-0.6,0.7h-1.5c-0.4,0-0.7-0.3-0.7-0.6v-1.8
				C188.7,63,189,62.7,189.3,62.7z"/>
		</g>
		<g id="XMLID_15_">
			<path class="st4" d="M184.2,62.7h1.5c0.4,0,0.7,0.3,0.7,0.6v1.8c0,0.4-0.3,0.7-0.6,0.7h-1.5c-0.4,0-0.7-0.3-0.7-0.6v-1.8
				C183.5,63,183.8,62.7,184.2,62.7z"/>
		</g>
		<g id="XMLID_14_">
			<path class="st4" d="M179.1,62.8h1.5c0.4,0,0.7,0.3,0.7,0.6v1.8c0,0.4-0.3,0.7-0.6,0.7h-1.5c-0.4,0-0.7-0.3-0.7-0.6v-1.8
				C178.4,63.1,178.7,62.8,179.1,62.8z"/>
		</g>
		<g>
			<g>
				<path class="st5" d="M206.7,38.6c0-2.8-2.2-5-5-5c-2.8,0-5,2.2-5,5c0,4.8,5,7.2,5,7.2S206.7,43.6,206.7,38.6z"/>
			</g>
			<g>
				<circle class="st11" cx="201.7" cy="38" r="2"/>
			</g>
		</g>
		<g>
			<path class="st6" d="M213.2,109.9c0-2.1-1.7-3.7-3.7-3.7c-2.1,0-3.7,1.7-3.7,3.7c0,3.6,3.7,5.4,3.7,5.4S213.2,113.7,213.2,109.9z
				"/>
		</g>
		<g>
			<circle class="st11" cx="209.5" cy="109.5" r="1.5"/>
		</g>
		<g>
			<g>
				<path class="st8" d="M183,81.7c0-1.7-1.4-3.1-3.1-3.1s-3.1,1.4-3.1,3.1c0,2.9,3.1,4.4,3.1,4.4S183,84.7,183,81.7z"/>
			</g>
			<g>
				<circle class="st12" cx="179.9" cy="81.3" r="1.2"/>
			</g>
		</g>
		<g>
			<path class="st8" d="M237.5,122.9c-0.8,0-1.5,0.2-2.1,0.5c-0.6-2.2-2.6-3.9-5-3.9c0,0,0,0,0,0c-0.4-3.1-3.1-5.5-6.3-5.5
				c-3.5,0-6.3,2.8-6.3,6.3c0,0.5,0.1,1.1,0.2,1.6c-1.6,0.1-3,1.1-3.6,2.5c-0.7-0.5-1.5-0.8-2.4-0.8c-2,0-3.7,1.5-4,3.4h34.3
				C242,124.8,240,122.9,237.5,122.9z"/>
		</g>
		<g>
			<path class="st4" d="M177,29c-0.9,0-1.7,0.2-2.4,0.6c-0.6-2.5-3-4.4-5.7-4.4c0,0,0,0,0,0c-0.5-3.6-3.5-6.3-7.2-6.3
				c-4,0-7.3,3.2-7.3,7.3c0,0.6,0.1,1.2,0.2,1.8c-1.9,0.1-3.4,1.3-4.1,2.9c-0.8-0.6-1.7-0.9-2.8-0.9c-2.3,0-4.2,1.7-4.6,3.9h39.3
				C182.1,31.1,179.8,29,177,29z"/>
		</g>
		<g>
			<path class="st6" d="M154.1,48.1l0.4,1c0,0,0,0.1,0.1,0.1l1,0.4c0.1,0.1,0.1,0.2,0,0.3l-1,0.4c0,0-0.1,0-0.1,0.1l-0.4,1
				c-0.1,0.1-0.2,0.1-0.3,0l-0.4-1c0,0,0-0.1-0.1-0.1l-1-0.4c-0.1-0.1-0.1-0.2,0-0.3l1-0.4c0,0,0.1,0,0.1-0.1l0.4-1
				C153.9,48,154.1,48,154.1,48.1z"/>
		</g>
		<g>
			<path class="st6" d="M237.9,71.7l0.8,1.9c0,0.1,0.1,0.1,0.2,0.2l1.9,0.8c0.2,0.1,0.2,0.4,0,0.5l-1.9,0.8c-0.1,0-0.1,0.1-0.2,0.2
				l-0.8,1.9c-0.1,0.2-0.4,0.2-0.5,0l-0.8-1.9c0-0.1-0.1-0.1-0.2-0.2l-1.9-0.8c-0.2-0.1-0.2-0.4,0-0.5l1.9-0.8
				c0.1,0,0.1-0.1,0.2-0.2l0.8-1.9C237.5,71.5,237.8,71.5,237.9,71.7z"/>
		</g>
		<g>
			<path class="st0" d="M235.6,63.1l0.5,1.2c0,0,0.1,0.1,0.1,0.1l1.2,0.5c0.2,0.1,0.2,0.3,0,0.3l-1.2,0.5c0,0-0.1,0.1-0.1,0.1
				l-0.5,1.2c-0.1,0.2-0.3,0.2-0.3,0l-0.5-1.2c0,0-0.1-0.1-0.1-0.1l-1.2-0.5c-0.2-0.1-0.2-0.3,0-0.3l1.2-0.5c0,0,0.1-0.1,0.1-0.1
				l0.5-1.2C235.3,62.9,235.5,62.9,235.6,63.1z"/>
		</g>
		<g>
			<path class="st0" d="M143.5,43.7l0.6,1.4c0,0.1,0.1,0.1,0.1,0.1l1.4,0.6c0.2,0.1,0.2,0.3,0,0.4l-1.4,0.6c-0.1,0-0.1,0.1-0.1,0.1
				l-0.6,1.4c-0.1,0.2-0.3,0.2-0.4,0l-0.6-1.4c0-0.1-0.1-0.1-0.1-0.1l-1.4-0.6c-0.2-0.1-0.2-0.3,0-0.4l1.4-0.6
				c0.1,0,0.1-0.1,0.1-0.1l0.6-1.4C143.2,43.5,143.4,43.5,143.5,43.7z"/>
		</g>
		<g>
			<path class="st3" d="M153.6,38.5l0.5,1.2c0,0,0.1,0.1,0.1,0.1l1.2,0.5c0.1,0.1,0.1,0.3,0,0.3l-1.2,0.5c0,0-0.1,0.1-0.1,0.1
				l-0.5,1.2c-0.1,0.1-0.3,0.1-0.3,0l-0.5-1.2c0,0-0.1-0.1-0.1-0.1l-1.2-0.5c-0.1-0.1-0.1-0.3,0-0.3l1.2-0.5c0,0,0.1-0.1,0.1-0.1
				l0.5-1.2C153.3,38.4,153.5,38.4,153.6,38.5z"/>
		</g>
		<g id="圖層_3_2_">
			<g>
				<g>
					<path class="st1" d="M227.3,57.5C227.2,57.5,227.2,57.5,227.3,57.5c-0.3,0-0.4-0.2-0.7-0.8c-0.9-1.8-1.9-3.3-3.3-2.6
						c-0.2,0.1-0.4,0-0.5-0.1c-2.7-4-3.4-7.5-2-10.9c0.4-1,1.3-3.1,3.2-3.4c1.4-0.2,2.3,1.5,3,2.8c0.3,0.6,0.6,1.2,0.9,1.4
						c0.4,0.4,3.6,3.8,2.4,8.6c-0.5,2-1.4,3.7-2.7,4.9C227.5,57.5,227.4,57.5,227.3,57.5z M224,53.2c1.7,0,2.8,2.2,3.3,3.2
						c0,0,0,0.1,0.1,0.1c1-1.1,1.8-2.6,2.2-4.2c1.1-4.4-1.9-7.5-2.2-7.8c-0.4-0.4-0.7-1-1-1.6c-0.6-1.2-1.3-2.4-2.2-2.3
						c-1.5,0.2-2.2,1.9-2.6,2.9c-1.2,3.1-0.6,6.3,1.8,9.9C223.5,53.2,223.7,53.2,224,53.2z"/>
				</g>
			</g>
			<g>
				<g>
					<path class="st1" d="M227.3,71C227.2,71,227.2,71,227.3,71c-0.3,0-0.4-0.2-0.7-0.8c-0.9-1.8-1.9-3.3-3.3-2.6
						c-0.2,0.1-0.4,0-0.5-0.1c-2.7-4-3.4-7.5-2-10.9c0.4-1,1.3-3.1,3.2-3.4c1.4-0.2,2.3,1.5,3,2.8c0.3,0.6,0.6,1.2,0.9,1.4
						c0.4,0.4,3.6,3.8,2.4,8.6c-0.5,2-1.4,3.7-2.7,4.9C227.5,71,227.4,71,227.3,71z M224,66.7c1.7,0,2.8,2.2,3.3,3.2
						c0,0,0,0.1,0.1,0.1c1-1.1,1.8-2.6,2.2-4.2c1.1-4.4-1.9-7.5-2.2-7.8c-0.4-0.4-0.7-1-1-1.6c-0.6-1.2-1.3-2.4-2.2-2.3
						c-1.5,0.2-2.2,1.9-2.6,2.9c-1.2,3.1-0.6,6.3,1.8,9.9C223.5,66.7,223.7,66.7,224,66.7z"/>
				</g>
			</g>
			<g>
				<g>
					<path class="st1" d="M226.5,85.2L226.5,85.2L226.5,85.2L226.5,85.2c-0.2,0-0.4-0.1-0.4-0.2c-3.7-3.9-7.6-9.2-5.3-14.9
						c0.4-1,1.3-3.1,3.2-3.4c1.4-0.2,2.3,1.5,3,2.8c0.3,0.6,0.6,1.2,0.9,1.4c0.4,0.4,3.6,3.8,2.4,8.6c-0.5,2.3-1.7,4.2-3.4,5.5
						C226.8,85.1,226.6,85.2,226.5,85.2z M224.2,67.5C224.1,67.5,224.1,67.5,224.2,67.5c-1.6,0.2-2.3,1.9-2.7,2.9
						c-2.1,5.2,1.6,10.2,5,13.9c1.5-1.2,2.5-2.9,3-5c1.1-4.4-1.9-7.5-2.2-7.8c-0.4-0.4-0.7-1-1-1.6C225.7,68.7,225,67.5,224.2,67.5z
						"/>
				</g>
			</g>
			<g>
				<g>
					<polygon class="st0" points="207,68.5 178.6,68.5 235.8,91 242.7,91 					"/>
				</g>
				<g>
					<polygon class="st8" points="178.6,68.5 235.8,91 240.4,91 183.1,68.5 					"/>
				</g>
				<g>
					<polygon class="st8" points="235.8,91 240.4,84.9 242.7,84.9 242.7,91 					"/>
				</g>
			</g>
		</g>
	</g>
</g>
</svg>
