<?xml version="1.0" encoding="utf-8"?>
<!-- Generator: Adobe Illustrator 21.1.0, SVG Export Plug-In . SVG Version: 6.00 Build 0)  -->
<svg version="1.1" id="圖層_1" xmlns="http://www.w3.org/2000/svg" xmlns:xlink="http://www.w3.org/1999/xlink" x="0px" y="0px"
	 viewBox="0 0 886.4 715.6" style="enable-background:new 0 0 886.4 715.6;" xml:space="preserve">
<style type="text/css">
	.st0{fill:#EDEBD9;}
	.st1{fill:#ACD2BC;}
	.st2{fill:#ADD1C0;}
	.st3{fill:none;stroke:#F3B5A3;stroke-width:7;stroke-miterlimit:10;}
	.st4{fill:#F3B5A3;}
	.st5{fill:#ABD2BE;}
	.st6{fill:#3B9197;}
	.st7{fill:#3296A2;stroke:#3296A2;stroke-miterlimit:10;}
	.st8{fill:none;stroke:#3296A2;stroke-width:4;stroke-linecap:round;stroke-miterlimit:10;}
	.st9{fill:#3296A2;}
</style>
<polygon class="st0" points="155.1,695.1 155.1,45.8 312.8,125.8 614.1,125.8 750.3,45.3 750.3,694.6 "/>
<path class="st1" d="M511.6,224.8h49.7C561.4,224.8,537.5,167.1,511.6,224.8z"/>
<path class="st2" d="M406.7,695.1c0,0,22.4-102.9,112.9-180.5c41.8-45.7,36.8-99.4,41.8-127.3c5-27.8,35.8-156.1,188.9-201.4v508.7
	L406.7,695.1z"/>
<path class="st3" d="M511.2,125.8c0,0-21.4,30.8-43.3,35.8c-21.9,5-46.7,4-56.7,18.9c-9.9,14.9,3,29.8,41.8,27.8
	c38.8-2,80.5,14.9,68.6,39.8s-70.6,1-79.6,45.7c-8.9,44.7,27.8,76.6-13.9,105.4c-47.7,28.8-95.5-18.9-130.3-9.9
	c-34.8,8.9-44.7,33.8-64.6,88.5s-78.1,36-78.1,36"/>
<path class="st1" d="M459.9,200.4h49.7C509.7,200.4,485.8,142.7,459.9,200.4z"/>
<path class="st1" d="M459.9,248.6h49.7C509.7,248.6,485.8,190.9,459.9,248.6z"/>
<path class="st1" d="M511.6,268.5h49.7C561.4,268.5,537.5,210.8,511.6,268.5z"/>
<path class="st1" d="M465.9,295.4h49.7C515.6,295.4,491.8,237.7,465.9,295.4z"/>
<path class="st4" d="M436.2,652.5L436.2,652.5c-1.4,0.2-2.6-0.6-2.9-2l-2.7-14.7c-0.2-1.4,0.6-2.6,2-2.9l0,0c1.4-0.2,2.6,0.6,2.9,2
	l2.7,14.7C438.5,651,437.6,652.3,436.2,652.5z"/>
<path class="st4" d="M442.4,685.9L442.4,685.9c-1.4,0.2-2.6-0.6-2.9-2l-2.7-14.7c-0.2-1.4,0.6-2.6,2-2.9l0,0c1.4-0.2,2.6,0.6,2.9,2
	l2.7,14.7C444.6,684.3,443.7,685.6,442.4,685.9z"/>
<path class="st4" d="M411.6,519.2L411.6,519.2c-1.4,0.2-2.6-0.6-2.9-2l-2.7-14.7c-0.2-1.4,0.6-2.6,2-2.9l0,0c1.4-0.2,2.6,0.6,2.9,2
	l2.7,14.7C413.9,517.7,413,519,411.6,519.2z"/>
<path class="st4" d="M417.8,552.5L417.8,552.5c-1.4,0.2-2.6-0.6-2.9-2l-2.7-14.7c-0.2-1.4,0.6-2.6,2-2.9l0,0c1.4-0.2,2.6,0.6,2.9,2
	l2.7,14.7C420,551,419.1,552.3,417.8,552.5z"/>
<path class="st4" d="M423.9,585.9L423.9,585.9c-1.4,0.2-2.6-0.6-2.9-2l-2.7-14.7c-0.2-1.4,0.6-2.6,2-2.9l0,0c1.4-0.2,2.6,0.6,2.9,2
	l2.7,14.7C426.2,584.3,425.3,585.6,423.9,585.9z"/>
<path class="st4" d="M430.1,619.2L430.1,619.2c-1.4,0.2-2.6-0.6-2.9-2l-2.7-14.7c-0.2-1.4,0.6-2.6,2-2.9h0c1.4-0.2,2.6,0.6,2.9,2
	l2.7,14.7C432.3,617.7,431.4,619,430.1,619.2z"/>
<path class="st4" d="M387,385.9L387,385.9c-1.4,0.2-2.6-0.6-2.9-2l-2.7-14.7c-0.2-1.4,0.6-2.6,2-2.9l0,0c1.4-0.2,2.6,0.6,2.9,2
	L389,383C389.3,384.3,388.4,385.6,387,385.9z"/>
<path class="st4" d="M393.2,419.2L393.2,419.2c-1.4,0.2-2.6-0.6-2.9-2l-2.7-14.7c-0.2-1.4,0.6-2.6,2-2.9l0,0c1.4-0.2,2.6,0.6,2.9,2
	l2.7,14.7C395.4,417.7,394.5,419,393.2,419.2z"/>
<path class="st4" d="M399.3,452.5L399.3,452.5c-1.4,0.2-2.6-0.6-2.9-2l-2.7-14.7c-0.2-1.4,0.6-2.6,2-2.9l0,0c1.4-0.2,2.6,0.6,2.9,2
	l2.7,14.7C401.6,451,400.7,452.3,399.3,452.5z"/>
<path class="st4" d="M405.5,485.9L405.5,485.9c-1.4,0.2-2.6-0.6-2.9-2l-2.7-14.7c-0.2-1.4,0.6-2.6,2-2.9h0c1.4-0.2,2.6,0.6,2.9,2
	l2.7,14.7C407.7,484.3,406.8,485.6,405.5,485.9z"/>
<path class="st4" d="M362.4,252.5L362.4,252.5c-1.4,0.2-2.6-0.6-2.9-2l-2.7-14.7c-0.2-1.4,0.6-2.6,2-2.9l0,0c1.4-0.2,2.6,0.6,2.9,2
	l2.7,14.7C364.7,251,363.8,252.3,362.4,252.5z"/>
<path class="st4" d="M368.6,285.9L368.6,285.9c-1.4,0.2-2.6-0.6-2.9-2l-2.7-14.7c-0.2-1.4,0.6-2.6,2-2.9l0,0c1.4-0.2,2.6,0.6,2.9,2
	l2.7,14.7C370.8,284.3,369.9,285.6,368.6,285.9z"/>
<path class="st4" d="M374.7,319.2L374.7,319.2c-1.4,0.2-2.6-0.6-2.9-2l-2.7-14.7c-0.2-1.4,0.6-2.6,2-2.9l0,0c1.4-0.2,2.6,0.6,2.9,2
	l2.7,14.7C377,317.6,376.1,318.9,374.7,319.2z"/>
<path class="st4" d="M380.9,352.5L380.9,352.5c-1.4,0.2-2.6-0.6-2.9-2l-2.7-14.7c-0.2-1.4,0.6-2.6,2-2.9h0c1.4-0.2,2.6,0.6,2.9,2
	l2.7,14.7C383.1,351,382.2,352.3,380.9,352.5z"/>
<path class="st4" d="M344,152.5L344,152.5c-1.4,0.2-2.6-0.6-2.9-2l-2.7-14.7c-0.2-1.4,0.6-2.6,2-2.9l0,0c1.4-0.2,2.6,0.6,2.9,2
	l2.7,14.7C346.2,151,345.3,152.3,344,152.5z"/>
<path class="st4" d="M350.1,185.9L350.1,185.9c-1.4,0.2-2.6-0.6-2.9-2l-2.7-14.7c-0.2-1.4,0.6-2.6,2-2.9v0c1.4-0.2,2.6,0.6,2.9,2
	l2.7,14.7C352.4,184.3,351.5,185.6,350.1,185.9z"/>
<path class="st4" d="M356.3,219.2L356.3,219.2c-1.4,0.2-2.6-0.6-2.9-2l-2.7-14.7c-0.2-1.4,0.6-2.6,2-2.9h0c1.4-0.2,2.6,0.6,2.9,2
	l2.7,14.7C358.5,217.6,357.6,218.9,356.3,219.2z"/>
<path class="st5" d="M281.4,547v82.5h22.9V547H281.4z M291.4,580.1h-4.5v-8h4.5V580.1z M291.4,569.2h-4.5v-8h4.5V569.2z
	 M291.4,558.5h-4.5v-8h4.5V558.5z M300.3,580.8h-4.5v-8h4.5V580.8z M300.3,569.2h-4.5v-8h4.5V569.2z M300.3,558.5h-4.5v-8h4.5V558.5
	z"/>
<path class="st5" d="M339.6,588.2V630h22.9v-41.8H339.6z M358.5,599.2h-5v-7h5V599.2z"/>
<path class="st5" d="M309.8,519.6V630h22.9V519.6H309.8z M318.7,570.3h-5v-8.9h5V570.3z M318.7,557.4h-5v-8.9h5V557.4z M318.7,544.5
	h-5v-8.9h5V544.5z M318.7,532.5h-5v-8.9h5V532.5z M326.7,532.5h-5v-8.9h5V532.5z"/>
<rect x="749.1" y="100.4" class="st6" width="3.5" height="23.9"/>
<rect x="603.4" y="433.6" class="st6" width="3.5" height="8.9"/>
<g>
	<path class="st7" d="M752.6,38.8V2L605.2,83.8H285.8L132.5,2.1L132,694.6l0,1.7h472.4c0.2,0.1,0.5,0.2,0.7,0.2s0.5-0.1,0.7-0.2
		h146.7V138.2h-3.5v554.6H606.9V457.5h-3.5v235.4H287.7v-134h-3.5v134H135.5l0.5-685l148.2,79v198.6h3.5V87.3h315.7v335.4h3.5V86.8
		L749.1,7.9v30.9H752.6z"/>
	<rect x="284.2" y="304.3" class="st7" width="3.5" height="235.7"/>
</g>
<path class="st8" d="M755.8,363.5c0,0,32.3,21.9,43.3,84.5c10.9,62.6,58.7,203.9,81.5,246.6c22.9,42.8-124.3,0-124.3,0"/>
<g>
	<path class="st9" d="M753.3,553.4c-0.8,0-1.5-0.4-1.8-1.2c-9-20.8-2.4-38.2-0.4-42.5c0,0,0,0,0-0.1c-10-19.4-2.5-37.6-0.1-42.5
		c0,0,0,0,0-0.1c-8.4-10.7-53.1-68.8-44.1-85.7c4.1-7.7,8.3-11.9,12.5-12.4c3.5-0.4,5.5,1.8,5.7,2.1l0.3,0.4l0.1,0.5
		c5.7,23,47.6,57.3,48.1,57.6c0.9,0.7,1,1.9,0.3,2.8c-0.7,0.9-1.9,1-2.8,0.3c-1.8-1.4-42.6-34.9-49.2-59.1c0,0,0,0,0,0
		c-0.4-0.2-1-0.6-2-0.5c-1.6,0.2-4.9,1.8-9.4,10.3c-6.8,12.9,29.8,63.8,44.5,82.4l0,0c0.5,0.6,0.6,1.5,0.2,2.2l0,0
		c-0.1,0.2-11.2,20.2,0,40.8l0.5,0.9l-0.5,0.9c-0.1,0.2-9.3,18.3,0,39.9c0.4,0.9,0.2,2-0.6,2.6C754.1,553.3,753.7,553.4,753.3,553.4
		z"/>
</g>
<path class="st8" d="M128.7,363.5c0,0-32.3,21.9-43.3,84.5S26.8,651.9,3.9,694.6c-22.9,42.8,124.3,0,124.3,0"/>
<path class="st8" d="M111.3,431.1c0,0,42.8-34.8,48.7-58.7c0,0,6-7,14.9,9.9c8.9,16.9-44.7,84.5-44.7,84.5s11.9,20.9,0,42.8
	c0,0,9.9,18.9,0,41.8"/>
</svg>
