<?xml version="1.0" encoding="utf-8"?>
<!-- Generator: Adobe Illustrator 21.1.0, SVG Export Plug-In . SVG Version: 6.00 Build 0)  -->
<svg version="1.1" id="圖層_1" xmlns="http://www.w3.org/2000/svg" xmlns:xlink="http://www.w3.org/1999/xlink" x="0px" y="0px"
	 viewBox="0 0 443.7 407.9" style="enable-background:new 0 0 443.7 407.9;" xml:space="preserve">
<style type="text/css">
	.st0{fill:#E5785E;}
	.st1{fill:none;stroke:#4A958E;stroke-width:3;stroke-miterlimit:10;}
	.st2{fill:#F4AF9E;}
	.st3{fill:#AAD5C0;}
	.st4{fill:none;stroke:#FFFFFF;stroke-width:3;stroke-miterlimit:10;}
	.st5{fill:#FFFFFF;}
	.st6{fill:#ACD2C0;}
	.st7{fill:#3A93A2;}
	.st8{fill:#37939E;}
	.st9{fill:#309AA8;}
	.st10{fill:none;stroke:#E5785E;stroke-width:3;stroke-miterlimit:10;}
	.st11{fill:#F6ADA2;}
	.st12{fill:#EFEBD9;}
	.st13{fill:#F69D24;}
	.st14{fill:none;stroke:#E5785E;stroke-width:2;stroke-miterlimit:10;}
</style>
<path class="st0" d="M148-0.5l-39.4,132.1l62,18.5L210,18L148-0.5z M166.2,146.6l-52.8-15.7l35.1-117.8l52.8,15.7L166.2,146.6z"/>
<path class="st1" d="M67,98c0,0,6-14,21,2c12,10,21-9,32-6.5s21.5,11,15.5,22s-15,14-15,14"/>
<path class="st2" d="M55.9,104L0,291.5l152.1,45.3L208,149.3L55.9,104z M131.5,312.4l-90.6-27l18.5-62.1l-5.8-1.7l0.9-3l5.8,1.7
	l3.2-10.6l90.6,27L131.5,312.4z"/>
<g>
	<polygon class="st0" points="194.6,157.2 210.5,162 202.3,189.5 205.2,190.4 214.2,160 195.5,154.4 	"/>
	
		<rect x="166.1" y="142.7" transform="matrix(0.2856 -0.9584 0.9584 0.2856 -21.7274 266.1021)" class="st0" width="3" height="9.8"/>
	<polygon class="st0" points="199.3,199.5 155.5,346.5 10.9,303.5 43.4,194.5 40.5,193.7 7.2,305.5 157.5,350.3 202.2,200.4 	"/>
	<polygon class="st0" points="59.5,140.3 65.9,118.9 148.3,143.4 149.1,140.6 63.9,115.2 56.7,139.4 	"/>
	
		<rect x="32" y="168.6" transform="matrix(0.2855 -0.9584 0.9584 0.2855 -128.0066 168.5849)" class="st0" width="34.1" height="3"/>
</g>
<circle class="st3" cx="28.5" cy="321.5" r="8.5"/>
<circle class="st3" cx="118.5" cy="348.5" r="8.5"/>
<polygon class="st4" points="29.5,106.5 46.5,130.5 73.5,110.5 74.5,99.5 68.5,90.5 56.5,89.5 "/>
<circle class="st5" cx="67" cy="98" r="4.5"/>
<polygon class="st2" points="65.5,213.4 63.2,221.1 142.2,244.6 141.3,247.7 62.3,224.1 44.7,283.4 129.5,308.6 150.3,238.6 "/>
<rect x="209" y="259.8" transform="matrix(0.9746 -0.224 0.224 0.9746 -64.1318 79.2432)" class="st6" width="216.4" height="125"/>
<path class="st7" d="M263.2,310.2L263.2,310.2c-3,0.7-6-1.2-6.6-4.2l-8.8-38.4l10.8-2.5l8.8,38.4
	C268.1,306.5,266.2,309.5,263.2,310.2z"/>
<path class="st7" d="M371.2,283.2L371.2,283.2c-3,0.7-6-1.2-6.6-4.2l-8.8-38.4l10.8-2.5l8.8,38.4
	C376.1,279.5,374.2,282.5,371.2,283.2z"/>
<polygon class="st8" points="288.2,243.9 325.3,235.4 326.9,242.1 330.5,241.3 327.8,229.7 283.2,239.9 285.9,251.5 289.8,250.6 "/>
<g>
	<path class="st9" d="M230,403.8l-29.5-128.2l213.8-49.1l29.5,128.2L230,403.8z M204.1,277.8l28.1,122.4l208-47.8L412.1,230
		L204.1,277.8z"/>
</g>
<path class="st10" d="M219.3,272c0,0,7.8,20.9-13,24.7"/>
<path class="st10" d="M394.7,232.1c0,0,2.7,22.1,23,15.9"/>
<path class="st10" d="M425.7,358.8c0,0-7.8-20.9,13-24.7"/>
<path class="st10" d="M250.3,398.7c0,0-2.7-22.1-23-15.9"/>
<circle class="st0" cx="274.5" cy="357.5" r="16.5"/>
<circle class="st11" cx="252" cy="350" r="15"/>
<polygon class="st12" points="386.5,330.2 378,339.2 366.3,343.2 354,341.3 344.1,334 338.6,322.9 339,310.5 345.1,299.7 355.5,293 
	367.8,291.8 379.3,296.6 387.2,306.1 389.8,318.2 "/>
<path class="st13" d="M413.7,330.7L382,349c-4.5,2.6-10.3,1.1-12.9-3.5h0c-2.6-4.5-1.1-10.3,3.5-12.9l31.7-18.3
	c4.5-2.6,10.3-1.1,12.9,3.5v0C419.8,322.4,418.2,328.1,413.7,330.7z"/>
<path class="st14" d="M304.5,294.5l6,27c0,0,14,1,26-9s23-4,23-4l-7-26c0,0-16-1-25,8S304.5,294.5,304.5,294.5z"/>
<g>
	<path class="st0" d="M329.2,307.9c0.3,0.8-0.4,1.5-2,2.1c-0.8,0.3-2,0.2-3.5-0.4c-0.9,1.5-2.3,2.5-4,3.2c-1.4,0.5-2.7,0.7-3.8,0.5
		c-1.4-0.2-2.3-1-2.8-2.2c-0.7-1.8,0.1-3.7,2.3-5.7c-1.4-0.8-2.2-1.5-2.4-2.2c-0.3-0.9-0.2-1.7,0.4-2.5c0.5-0.7,1.3-1.2,2.3-1.6
		c1-0.3,1.9-0.4,2.7-0.1c0.9,0.3,1.5,0.9,1.8,1.7c0.2,0.6,0.2,1.3-0.2,2.1c-0.2,0.5-0.6,1.1-1.3,1.9c0.9,0.5,2.3,1.3,4.1,2.2
		c0.1-0.5,0.2-1.1,0.4-1.6c0.2-0.6,0.5-1,1-1.2c0.2-0.1,0.5-0.1,0.8,0.1c0.2,0.2,0.4,0.3,0.5,0.6c0.2,0.5,0,1.5-0.6,3
		c0.8,0.4,1.5,0.5,2,0.4c0.1-0.1,0.4-0.2,0.6-0.4c0.3-0.2,0.5-0.3,0.6-0.4c0.2-0.1,0.5-0.1,0.7,0.1
		C328.9,307.5,329.1,307.7,329.2,307.9z M317.9,301.4c-0.1-0.4-0.4-0.6-0.7-0.7c-0.3-0.1-0.7-0.1-1.1,0c-0.4,0.2-0.7,0.4-0.9,0.7
		c-0.2,0.3-0.2,0.7-0.1,1c0.2,0.5,0.8,1,1.8,1.4C317.8,302.8,318.1,302,317.9,301.4z M321.7,308.8c-0.6-0.3-1.4-0.7-2.4-1.3
		c-1.1-0.7-1.9-1.1-2.3-1.3c-0.5,0.5-1,1.1-1.4,1.8c-0.5,0.8-0.6,1.5-0.4,2c0.2,0.6,0.7,1,1.4,1.2c0.6,0.1,1.3,0.1,2-0.2
		C320.1,310.4,321.1,309.7,321.7,308.8z"/>
	<path class="st0" d="M340,300.2c0.5,1.3,0.3,2.7-0.5,3.9c-0.8,1.2-1.9,2.1-3.5,2.7c-1.6,0.6-3.1,0.6-4.4,0.2
		c-1.4-0.5-2.4-1.4-2.9-2.7c-0.5-1.3-0.3-2.7,0.6-4c0.8-1.2,1.9-2.1,3.4-2.6c1.5-0.5,2.9-0.6,4.3-0.2
		C338.5,298,339.5,298.9,340,300.2z M337.8,301c-0.3-0.8-0.9-1.4-1.8-1.7c-0.9-0.3-1.8-0.3-2.7,0.1c-0.9,0.3-1.7,0.9-2.1,1.7
		c-0.5,0.8-0.6,1.7-0.3,2.5c0.3,0.9,0.9,1.4,1.8,1.7c0.9,0.3,1.8,0.3,2.8-0.1c1-0.4,1.7-0.9,2.2-1.7
		C338.1,302.7,338.1,301.9,337.8,301z"/>
	<path class="st0" d="M352.9,299.4c0.3,0.8,0.1,1.3-0.7,1.6c-0.4,0.1-0.7,0.1-0.9-0.1c-0.2-0.1-0.3-0.4-0.4-0.8l-1.4-3.8
		c-0.6-1.7-1.9-2.2-3.9-1.5c-1.4,0.5-2.2,1.6-2.6,3.4l1.5,4.1c0.2,0.4,0.2,0.7,0.1,0.9c-0.1,0.3-0.3,0.5-0.7,0.7
		c-0.7,0.3-1.2-0.1-1.5-0.9l-2.5-6.9c-0.2-0.7,0-1.1,0.8-1.4c0.5-0.2,0.8-0.1,1.1,0.3c0.1,0.1,0.3,0.5,0.5,1.1
		c0.4-0.8,0.8-1.4,1.2-1.9c0.5-0.5,1.2-1,2.1-1.3c1.4-0.5,2.6-0.5,3.6-0.2c1,0.4,1.7,1.2,2.2,2.3L352.9,299.4z"/>
</g>
<g>
	<rect x="251" y="296.1" transform="matrix(0.9746 -0.224 0.224 0.9746 -60.1364 65.8797)" class="st0" width="18.6" height="3.8"/>
	<rect x="359" y="270.1" transform="matrix(0.9746 -0.224 0.224 0.9746 -51.5672 89.4126)" class="st0" width="18.6" height="3.8"/>
</g>
</svg>
