<?xml version="1.0" encoding="utf-8"?>
<!-- Generator: Adobe Illustrator 21.1.0, SVG Export Plug-In . SVG Version: 6.00 Build 0)  -->
<svg version="1.1" id="圖層_1" xmlns="http://www.w3.org/2000/svg" xmlns:xlink="http://www.w3.org/1999/xlink" x="0px" y="0px"
	 viewBox="0 0 642.5 630" style="enable-background:new 0 0 642.5 630;" xml:space="preserve">
<style type="text/css">
	.st0{clip-path:url(#SVGID_2_);}
	.st1{fill:#FB9C1D;}
	.st2{fill:#ADD1C0;}
	.st3{fill:#30989D;}
	.st4{fill:#EE7D6C;}
	.st5{fill:none;stroke:#211F20;stroke-width:2;stroke-linecap:round;stroke-linejoin:round;stroke-miterlimit:10;}
	.st6{fill:#EDEBD9;}
	.st7{fill:#F4AF9E;}
	.st8{fill:#211F20;}
	.st9{fill:#F79E1F;}
	.st10{fill:none;stroke:#ADD1C0;stroke-width:2;stroke-linecap:round;stroke-linejoin:round;stroke-miterlimit:10;}
	.st11{fill:none;stroke:#211F20;stroke-width:2;stroke-miterlimit:10;}
	.st12{fill:#F79E1D;}
	.st13{fill:none;stroke:#211F20;stroke-linecap:round;stroke-linejoin:round;stroke-miterlimit:10;}
	.st14{fill:#F4AF9E;stroke:#211F20;stroke-width:2;stroke-linecap:round;stroke-linejoin:round;stroke-miterlimit:10;}
	.st15{fill:#EEE1CD;}
	.st16{fill:#F87573;}
	.st17{fill:none;stroke:#E9EED8;stroke-width:2;stroke-miterlimit:10;}
	.st18{fill:none;stroke:#EC7D69;stroke-width:2;stroke-linecap:round;stroke-linejoin:round;stroke-miterlimit:10;}
	.st19{fill:none;stroke:#F87573;stroke-width:2;stroke-linecap:round;stroke-linejoin:round;stroke-miterlimit:10;}
	.st20{fill:#34969E;}
	.st21{fill:#ADD1BE;}
	.st22{fill:none;stroke:#EC7D69;stroke-width:4;stroke-linecap:round;stroke-linejoin:round;stroke-miterlimit:10;}
	.st23{fill:none;stroke:#EC7D69;stroke-width:3;stroke-linecap:round;stroke-linejoin:round;stroke-miterlimit:10;}
</style>
<g>
	<g>
		<defs>
			<path id="SVGID_1_" d="M245,476.5h398.5v-477H245C113.3-0.5,6.5,106.3,6.5,238v0C6.5,369.7,113.3,476.5,245,476.5z"/>
		</defs>
		<use xlink:href="#SVGID_1_"  style="overflow:visible;fill:#EDEBD9;"/>
		<clipPath id="SVGID_2_">
			<use xlink:href="#SVGID_1_"  style="overflow:visible;"/>
		</clipPath>
		<g class="st0">
			<circle class="st1" cx="583" cy="57" r="38"/>
			<path class="st2" d="M603.5,35.5v71h-11v-48h-9v-11h-9v76h-17v-36h-13v13l-24,3l-4-40h-78v68h-27v-59h-9v11h-20v15h-26v46h-19
				v-116h-39v52l-26,2v-36h-72v12h-16v-35h-14v62h-19v-37h-57h-103v433h651v-446H603.5z M223,77h-13V57h13V77z M313,44h-7V33h7V44z
				 M322,83h-7V72h7V83z M322,44h-7V33h7V44z M332,70h-7V59h7V70z M332,57h-7V46h7V57z M332,44h-7V33h7V44z M463,95h-13V75h13V95z
				 M505,163h-13v-20h13V163z M505,129h-13v-20h13V129z M505,95h-13V75h13V95z"/>
			<path class="st3" d="M646,265c0,0-66-18-98-3s-54.2,46.3-58.6,107.2c-4.4,60.8,11.5,109.3,11.5,109.3H646V265z"/>
			<path class="st4" d="M548,262c0,0,11,18,9,82s-28,89-43,98l4-39c0,0,9.5-5.5,15.5-32.5s2.3-79-3.4-97.5
				C530.1,273,536.5,265.5,548,262z"/>
			<path class="st4" d="M637.2,262.9c0,0-7.2,30.1-5.2,73.1s10.5,42.8,10.5,42.8v42.3c0,0-25.5-20.2-25.5-69.2s-10-50,0-93
				L637.2,262.9z"/>
			<path class="st5" d="M421,214l5-18c0,0-4-3-6,2s-2,6-2,6s-7.7-4.5-10.8,6.3"/>
			<path class="st6" d="M312,256c0,0-11-17-41-12s-38,67-40,78s-13,55-16,102s0,52,0,52h177c0,0-41-95-46-110S312,256,312,256z"/>
			<polygon class="st7" points="356.5,410.1 341.7,481.5 489.4,481.5 468,402 			"/>
			<polyline class="st5" points="290,465 303,429 343,429 332,466 			"/>
			<polygon class="st8" points="309,425 338,425 335,434 306,434 			"/>
			<circle class="st3" cx="296" cy="216" r="26"/>
			<path class="st4" d="M317,188c0,0-11-10-22,0c0,0-7-10-25-3s-15,22-15,26s-2,15-14,25s-19,19-17,42s6,26,10,33s4,19-10,36
				c-9,10-14,11-14,23s13,20,22,21s7,8,15,12s13,5,24,0s12,3,22,4s15-12,14-21s0-14-9-25s-12-22-7-35s14-28,0-53s-12-33,0-70
				L317,188z"/>
			<path class="st3" d="M310.6,254.3c0,0-3.6,22.8-3.6,53.8s3,37,5,48s5,27,5,51s-3,22-2,30s7,7,9,7s4-2,6-10s1-13,4-24s6-18,6-40
				s-6-28-7-56S322.2,259.5,310.6,254.3z"/>
			<path class="st4" d="M271.7,476l6.3-9.2c1.2-1.8,3.2-2.8,5.4-2.8h51.8c4.4,0,7.5,4.2,6.2,8.4L340,477L271.7,476z"/>
			<path class="st9" d="M406,210l18,4l-25,96c0,0,14.5-12.5,39.5-6.5s41,39,48,56s17,58,22,82s6,37,6,37h-26l-21-77l-124,10
				c0,0,2-31,13-56s20-61,20-61L406,210z"/>
			<line class="st10" x1="455.5" y1="353.5" x2="488.5" y2="478.5"/>
			<line class="st10" x1="344" y1="411" x2="466.4" y2="401.9"/>
			<circle class="st11" cx="419" cy="273" r="26"/>
			<circle class="st12" cx="583" cy="231" r="26"/>
			<path class="st8" d="M348,302c0,0,10,11,51,13c0,0-7-18,0-34s19-33,24-34c0,0-16-3-30,3s-11,13-21,18S345,275,348,302z"/>
			<path class="st5" d="M403,315c0,0-8-13,1-36s19-32,19-32c-26-4-40,1-52,13s-23,6-23,6"/>
			<path class="st3" d="M608.8,227.6c0,0-36.8-4.6-47.8-19.6s-3-18,7-13c0,0-10-9-7-16s13,2,19,11c0,0-3-11,1-13s9,12,13,20
				S609.5,204.2,608.8,227.6z"/>
			<path class="st7" d="M620.4,390.5h-67.8c-4.5,0-8.1-3.6-8.1-8.1v-88.8c0-4.5,3.6-8.1,8.1-8.1h67.8c4.5,0,8.1,3.6,8.1,8.1v88.8
				C628.5,386.9,624.9,390.5,620.4,390.5z"/>
			<path class="st5" d="M626.4,385.5h-67.8c-4.5,0-8.1-3.6-8.1-8.1v-88.8c0-4.5,3.6-8.1,8.1-8.1h67.8c4.5,0,8.1,3.6,8.1,8.1v88.8
				C634.5,381.9,630.9,385.5,626.4,385.5z"/>
			<rect x="568.1" y="346.5" class="st13" width="4.5" height="2.5"/>
			<rect x="612.1" y="346.5" class="st13" width="4.5" height="2.5"/>
			<line class="st5" x1="550.5" y1="328.9" x2="630.5" y2="328.9"/>
			<rect x="566.4" y="322.5" class="st14" width="8" height="23"/>
			<rect x="561" y="356" class="st14" width="65" height="19"/>
			<rect x="610.4" y="322.5" class="st14" width="8" height="23"/>
			<line class="st5" x1="556" y1="360.8" x2="620" y2="360.8"/>
			<line class="st5" x1="527.5" y1="315.5" x2="513.1" y2="467.2"/>
			<path class="st15" d="M380.3,51.9h25.9c0,0,5.8-1.2,5-7.7c-0.8-6.6-7.3-5.8-9.3-5c0,0-1.5-6.2-9.3-6.2c-7.7,0-8.5,5.8-8.5,5.8
				s-9.3-2.3-8.9,7.3C375.3,51.1,380.3,51.9,380.3,51.9z"/>
			<path class="st15" d="M429,33h25.9c0,0,5.8-1.2,5-7.7c-0.8-6.6-7.3-5.8-9.3-5c0,0-1.5-6.2-9.3-6.2c-7.7,0-8.5,5.8-8.5,5.8
				s-9.3-2.3-8.9,7.3C424,32.2,429,33,429,33z"/>
		</g>
	</g>
	<g>
		<circle class="st3" cx="109" cy="123" r="11.5"/>
		<circle class="st3" cx="127" cy="151" r="24.5"/>
		<path class="st16" d="M139.5,129.9C132,134.9,126,134,126,134l-4,11l-11,2l-7.3,11.7c3.2,9.8,12.4,16.8,23.3,16.8
			c13.5,0,24.5-11,24.5-24.5C151.5,142,146.7,134.2,139.5,129.9z"/>
	</g>
	<g>
		<path class="st3" d="M176.7,211c-0.1-0.2-0.1-0.3-0.2-0.5c-0.5-1.5-1.1-3-1.9-4.5H94.1c-0.7,1.6-1.3,3.2-1.9,5H176.7z"/>
		<path class="st3" d="M173.6,204c-1.2-2.1-2.5-4.1-4-6H98.7c-1.3,1.8-2.5,3.8-3.6,6H173.6z"/>
		<path class="st3" d="M167.9,196c-1.9-2.2-4-4.2-6.3-6h-55.1c-2.2,1.7-4.3,3.7-6.2,6H167.9z"/>
		<path class="st3" d="M183,227c-0.9-1.7-1.7-3.7-2.7-6H89.7c-0.5,2.1-1,4.1-1.5,6H183z"/>
		<path class="st3" d="M179.5,219c-0.7-1.8-1.4-3.8-2.2-6H91.6c-0.4,1.4-0.8,2.9-1.1,4.5c-0.1,0.5-0.2,1-0.3,1.5H179.5z"/>
		<path class="st3" d="M158.8,188c-6.6-4.6-14.4-7.5-22.3-7.5c-8.9,0-18.8,2-27.3,7.5H158.8z"/>
		<path class="st3" d="M187.3,234c-1.1-1.5-2.2-3.1-3.3-5H87.6c-0.5,1.8-1.1,3.4-1.6,5H187.3z"/>
		<path class="st3" d="M77.2,252c-2.2,3.1-3.7,4.5-3.7,4.5h124c-0.2-1.6-0.4-3.1-0.8-4.5H77.2z"/>
		<path class="st3" d="M192.9,242c-1.2-2.2-2.6-4.2-4-6H85.2c-0.8,2.2-1.7,4.2-2.5,6H192.9z"/>
		<path class="st3" d="M196.2,250c-0.6-2.1-1.4-4.1-2.3-6H81.8c-1.2,2.4-2.3,4.4-3.3,6H196.2z"/>
	</g>
	<rect x="133.5" y="148.5" class="st8" width="44" height="27"/>
	<circle class="st17" cx="156.5" cy="161.5" r="8"/>
	<rect x="137" y="151" class="st2" width="5" height="5"/>
	<path class="st5" d="M140.8,148.5c0,0-6.4-9.7-13.8-1.8c-0.9,0.9-2.4,0.9-3.3,0l-2.1-2.1c-0.4-0.4-1.1-0.1-1.1,0.4
		c-0.1,5.5-0.4,24.8-3,43.5c-3,22-7,37-11,40s-6,2-9,2"/>
	<path class="st5" d="M177.5,156c0,0,17,21.5,4,69.5"/>
	<path class="st5" d="M170.5,175.5c0,0,1,14-3,19"/>
	<path class="st7" d="M73.5,258.5h124c0,0,7,53,1,125s-23,192-27,206h-51c0,0-25-76-35-131s-13-92-15-157
		C70.5,283.5,73.5,258.5,73.5,258.5z"/>
	<line class="st18" x1="72.5" y1="267.4" x2="205" y2="267.4"/>
	<line class="st18" x1="115.5" y1="572.7" x2="185" y2="572.7"/>
	<line class="st18" x1="147.3" y1="304.1" x2="147.3" y2="589"/>
	<g>
		<rect x="147.5" y="260.5" class="st2" width="13" height="12"/>
		<rect x="149.5" y="262.5" class="st16" width="8" height="8"/>
	</g>
	<path class="st19" d="M193,276c0,0-8,28,17,26"/>
	<path class="st19" d="M103.5,272.5c0,0,6,30-18,28"/>
	<path class="st20" d="M186.1,622.3c-3.4-2.9-12-10.7-13.6-17.8c-2-9-1.5-15-1.5-15h-24.5v40h8v-23l8,23h21c2.2,0,4.1-1.8,4.1-4.1
		C187.5,624.2,187,623.1,186.1,622.3z"/>
	<path class="st21" d="M160.1,622.3c-3.4-2.9-12-10.7-13.6-17.8c-2-9-1.5-15-1.5-15h-24.5v40h8v-23l8,23h21c2.2,0,4.1-1.8,4.1-4.1
		C161.5,624.2,161,623.1,160.1,622.3z"/>
	<path class="st5" d="M70.5,228.5c0,0,3,24,20,30s28-6,34-23s8.2-35,10.6-60"/>
	<g>
		<line class="st22" x1="203" y1="497.8" x2="218.5" y2="497.8"/>
		<line class="st22" x1="210.8" y1="490.1" x2="210.8" y2="505.5"/>
	</g>
	<g>
		<line class="st23" x1="239" y1="515.6" x2="247" y2="523.6"/>
		<line class="st23" x1="247" y1="515.6" x2="239" y2="523.6"/>
	</g>
	<circle class="st2" cx="210.5" cy="551.5" r="7"/>
	<circle class="st2" cx="8" cy="407" r="7"/>
	<circle class="st2" cx="8" cy="353" r="7"/>
	<polygon class="st9" points="39,419 53,434 59,414 	"/>
</g>
</svg>
