<?xml version="1.0" encoding="utf-8"?>
<!-- Generator: Adobe Illustrator 21.1.0, SVG Export Plug-In . SVG Version: 6.00 Build 0)  -->
<svg version="1.1" id="圖層_1" xmlns="http://www.w3.org/2000/svg" xmlns:xlink="http://www.w3.org/1999/xlink" x="0px" y="0px"
	 viewBox="0 0 139 139" style="enable-background:new 0 0 139 139;" xml:space="preserve">
<style type="text/css">
	.st0{fill:#FFFFFF;}
</style>
<g id="圖層_1_1_">
</g>
<title>アセット 7</title>
<g>
	<path class="st0" d="M15.6,18h4.3V8.7c0-1.7,1.1-2.5,3-2.6c2,0,3,0.9,3.1,2.6V18h2.8c0.9,0,1.6,0.2,2.1,0.6
		c0.6,0.4,0.8,1.2,0.8,2.5c0,1-0.2,1.7-0.5,2.1c-0.5,0.6-1.3,0.9-2.4,0.9H26V35c0.6-0.3,1.1-0.6,1.6-0.9c0.6-0.4,1.1-0.7,1.5-0.7
		c1,0,1.8,0.3,2.4,0.8c0.4,0.4,0.7,0.9,0.8,1.5c0-0.1,0.1-0.1,0.1-0.2c0.5-0.5,1.3-0.7,2.4-0.7h11.3v-2.8c0-0.9,0.3-1.7,0.9-2.2
		c0.5-0.6,1.2-0.8,2.2-0.8c0.9,0,1.6,0.3,2.2,0.8c0.6,0.6,0.9,1.3,0.9,2.2v2.8h12.1c1.1,0,1.8,0.2,2.3,0.7c0.5,0.4,0.8,1.2,0.8,2.4
		c0,0.9-0.2,1.6-0.6,2.1c-0.6,0.7-1.4,1-2.5,1h-8.8c3,3.3,6.4,6.6,10.2,9.9c1.3,1,2,1.7,2.3,2.2c0.5,0.4,0.7,1,0.7,1.6
		c0,0.8-0.3,1.5-0.9,2.1c-0.7,0.6-1.5,0.9-2.4,0.9c-1.1,0-2-0.4-2.8-1.1c-3.7-3.4-7.2-7.3-10.4-11.8v13.4c0,0.7-0.2,1.4-0.6,2
		c-0.5,0.7-1.4,1.1-2.5,1.1c-1,0-1.8-0.4-2.4-1.1c-0.5-0.6-0.7-1.2-0.7-2V44.8c-2.3,3.3-4.7,6.2-7.2,8.7c-1.1,1.1-2.4,2.2-3.9,3.2
		c-0.9,0.6-1.8,1-2.6,1c-1.1,0-1.9-0.4-2.5-1.1c-0.5-0.6-0.8-1.3-0.8-2.2c0.1-0.7,0.5-1.4,1.4-1.9c2.6-1.7,5.5-4.3,8.6-7.6
		c1.3-1.4,2.5-2.7,3.4-4h-7.7c-1.1,0-1.9-0.2-2.4-0.7c-0.4-0.4-0.6-1-0.7-1.8c-0.1,0.2-0.2,0.3-0.3,0.4C30.1,39.9,28.3,41,26,42
		v14.2c0,1.6-0.4,2.7-1.1,3.4c-0.9,0.8-2.1,1.3-3.6,1.5h-3.6c-1.2-0.1-2.2-0.6-2.8-1.3c-0.4-0.4-0.6-1-0.7-1.8
		c0-1.1,0.2-1.8,0.6-2.3c0.4-0.6,1.1-0.9,2.2-1.1h1.9c0.6,0,0.9-0.3,0.9-0.7v-9.6c-1.4,0.4-2.6,0.6-3.5,0.6C14.2,45,13,44,13,42
		c0-1.5,0.7-2.5,2.1-2.8c1.7-0.5,3.3-1,4.8-1.5V24.1h-4.3c-0.8,0-1.5-0.2-2-0.7c-0.6-0.4-0.8-1.2-0.8-2.4c0-1.3,0.3-2.1,0.8-2.5
		C13.9,18.2,14.6,18,15.6,18z M36,8.9h27c2.7,0,4,1.5,4,4.4v6.9c0,1-0.3,1.7-0.8,2.1c-0.6,0.5-1.3,0.8-2.3,0.8
		c-1.1,0-1.9-0.3-2.4-0.9c-0.3-0.4-0.5-1.1-0.5-2v-5.3c0-0.5-0.3-0.7-0.9-0.7h-3.4c0,0.2,0.1,0.4,0.1,0.5v8.5c0,0.6,0.3,0.9,0.9,0.9
		h6.3c1.4,0,2.1,0.9,2.1,2.8c0,1.9-0.7,2.8-2.1,2.8h-8.5c-3.2,0-4.7-1.6-4.7-4.7V14.7c0-0.2,0-0.3,0.1-0.5h-3.2
		c-0.2,3.3-0.7,6.2-1.5,8.5c-1.3,3.7-3.6,6.7-6.9,9.2c-0.9,0.7-1.6,1.1-2.3,1.1c-0.9,0-1.8-0.4-2.4-1.1c-0.5-0.5-0.8-1.2-0.9-2.1
		c0-0.8,0.3-1.5,1-2.1c3.1-2.4,5.1-4.5,6-6.4c0.9-1.6,1.5-3.9,1.7-7.1h-3.5c-0.5,0-0.7,0.2-0.7,0.7v5.3c0,1.1-0.2,1.8-0.6,2.1
		C37,22.8,36.2,23,35.1,23c-1,0-1.8-0.2-2.2-0.7c-0.4-0.4-0.7-1.2-0.7-2.2v-6.9C32.2,10.4,33.5,8.9,36,8.9z"/>
	<path class="st0" d="M76.1,11.5h21.3V8.9c0-0.8,0.3-1.5,0.9-2.2c0.4-0.4,1.2-0.6,2.4-0.6c1.1,0,1.9,0.2,2.4,0.6
		c0.6,0.6,0.9,1.3,0.9,2.2v2.6h21.3c0.9,0,1.6,0.2,2,0.6c0.4,0.4,0.6,1,0.6,2c0,0.9-0.2,1.6-0.5,2c-0.5,0.6-1.2,0.9-2.1,0.9H104v4.1
		h18.3c3,0,4.4,1.4,4.4,4.3v7c0,1.1-0.3,1.9-0.8,2.3c-0.6,0.6-1.5,0.8-2.5,0.8c-1.3,0-2.3-0.3-2.8-0.9c-0.4-0.5-0.5-1.2-0.5-2.2V27
		c0-0.4-0.3-0.7-1-0.7H98.7c0.6,0.5,0.9,1.1,0.9,1.9c0,0.5-0.2,1-0.7,1.7c-0.9,1.3-2,2.7-3.5,4.3c-0.5,0.5-0.9,0.9-1.3,1.3
		c1.9,0.9,3.4,1.7,4.6,2.4c3.8-3.2,6.9-6.1,9.2-9c0.5-0.4,1.1-0.7,1.9-0.7c0.9,0,1.7,0.2,2.4,0.7c0.7,0.4,1,1.1,1.1,2
		c0,0.5-0.2,1-0.7,1.6c-2.5,3.2-6.1,6.5-10.9,9.9c5.4-0.2,10.5-0.6,15.2-1c-0.8-1.3-1.6-2.5-2.5-3.7c-0.5-0.7-0.7-1.3-0.7-1.8
		c0-0.6,0.4-1.1,1-1.7c0.5-0.3,1.1-0.5,1.8-0.5c0.7,0,1.5,0.2,2.4,0.7c2.6,2.7,5.1,6.2,7.4,10.7c0.5,1.1,0.8,2.1,0.9,3.1
		c0,1.1-0.3,1.9-0.9,2.4c-0.6,0.5-1.4,0.7-2.4,0.7c-1-0.1-1.7-0.5-2.1-1.2c-0.6-1.3-1.3-2.7-2.1-4.1c-4.6,0.7-9.4,1.2-14.5,1.6
		c-0.5,0-0.9,0.1-1.4,0.1v11.2c0,1.1-0.3,2-0.8,2.4c-0.6,0.6-1.4,0.8-2.5,0.8c-1.1,0-2-0.3-2.5-0.8c-0.6-0.5-0.8-1.3-0.8-2.4V48
		c-6.3,0.4-12.7,0.5-19.4,0.5c-1.1,0-1.9-0.2-2.3-0.6c-0.5-0.5-0.8-1.2-0.8-2.2c0-0.8,0.1-1.4,0.4-2c0.5-0.6,1.4-0.9,2.7-0.9
		c5,0,9.9-0.1,14.5-0.2c0.6-0.4,1.2-0.9,1.8-1.3c-3.2-1.4-6.5-2.7-10-4c-1-0.7-1.5-1.5-1.6-2.4c0-0.9,0.3-1.7,0.8-2.1
		c0.4-0.5,1.1-0.7,2.1-0.7c0.9,0,1.9,0.3,3.2,0.8l0.1-0.1c1.5-1.4,2.6-2.7,3.4-3.7c1.1-1.4,1.8-2.3,2-2.7c0.1-0.1,0.1-0.1,0.2-0.2
		H82.1c-0.5,0-0.8,0.2-0.8,0.7v6.4c0,1.2-0.2,2-0.7,2.3c-0.5,0.5-1.4,0.7-2.6,0.7c-1.2,0-2.1-0.2-2.5-0.6c-0.5-0.5-0.8-1.3-0.8-2.4
		v-8.1c0-2.9,1.5-4.3,4.4-4.3h18.3V17H76.1c-0.8,0-1.5-0.2-2-0.7c-0.4-0.4-0.7-1.1-0.7-2.2c0-0.9,0.2-1.5,0.7-2
		C74.7,11.7,75.3,11.5,76.1,11.5z M89.4,49.1c0.6,0,1.2,0.2,1.9,0.7c0.8,0.6,1.2,1.2,1.2,1.9c0,0.5-0.2,1-0.5,1.5
		c-2.8,2.6-6.8,4.9-11.8,7.2c-1,0.4-1.9,0.7-2.8,0.7c-1,0-1.9-0.4-2.6-1.2c-0.7-0.7-1-1.5-1-2.4c0-0.5,0.3-0.9,1-1.4
		c0.7-0.3,1.9-0.9,3.6-1.7c3.1-1.4,6.1-3,8.9-4.7C88.1,49.3,88.8,49.1,89.4,49.1z M111.1,49.1c0.4,0,1,0.2,2,0.5
		c4.7,1.8,9,3.8,12.8,6c1.1,0.8,1.7,1.7,1.7,2.6c0,0.8-0.3,1.4-0.8,2c-0.5,0.7-1.4,1-2.5,1.1c-0.5,0-1.1-0.2-1.8-0.6
		c-4.5-2.4-8.9-4.6-13.3-6.6c-0.7-0.4-1.1-1.2-1.1-2.4c0-0.5,0.3-1.1,0.9-1.8C109.5,49.4,110.3,49.1,111.1,49.1z"/>
	<path class="st0" d="M49.7,88.3h17.5v-6.2c0-0.8,0.3-1.5,0.9-2.2c0.4-0.4,1.2-0.7,2.4-0.7c1.2,0,2,0.2,2.5,0.7c0.7,0.6,1,1.3,1,2.2
		v6.2h17.5c1.1,0,2,0.2,2.4,0.6c0.5,0.4,0.7,1.2,0.7,2.4c0,1-0.2,1.7-0.6,2.2c-0.6,0.7-1.4,1-2.5,1H74v10.2h20.9
		c1.1,0,1.9,0.2,2.4,0.7c0.5,0.4,0.7,1.2,0.7,2.4c0,1-0.2,1.7-0.6,2.2c-0.6,0.7-1.4,1.1-2.5,1.1h-28l-6.4,14.1
		c9-0.4,17.1-1.1,24.5-2.4c-1.2-1.8-2.5-3.5-3.7-5.1c-0.8-1.1-1.2-2-1.2-2.6c0-0.8,0.4-1.5,1.1-2.1c0.7-0.5,1.5-0.8,2.4-0.8
		c0.9,0,1.7,0.4,2.4,1.2c3.6,4.7,6.8,9.4,9.4,13.9c0.7,1.1,1.1,2.1,1.2,3.1c0,1.1-0.3,1.8-1,2.3c-0.6,0.6-1.4,0.9-2.5,1
		c-1.3,0-2.1-0.7-2.6-2c-0.7-1.2-1.4-2.4-2.1-3.6c-4.7,1-9.5,1.8-14.5,2.3c-8.2,1-16.8,1.5-25.9,1.5c-1.3,0-2.2-0.2-2.7-0.7
		c-0.6-0.6-0.9-1.4-0.9-2.6c0-0.9,0.2-1.7,0.5-2.3c0.5-0.7,1.5-1,3-1c1.9,0,3.6,0,5.4-0.1l6.6-14.4H46.4c-1,0-1.8-0.3-2.4-0.8
		c-0.5-0.5-0.7-1.4-0.7-2.5c0-1.1,0.2-1.9,0.7-2.4c0.6-0.5,1.4-0.7,2.4-0.7h20.9V94.6H49.7c-1.1,0-1.9-0.3-2.4-0.8
		c-0.5-0.4-0.7-1.3-0.7-2.5c0-1.1,0.2-1.9,0.7-2.4C47.9,88.5,48.7,88.3,49.7,88.3z"/>
</g>
</svg>
