<?xml version="1.0" encoding="utf-8"?>
<!-- Generator: Adobe Illustrator 21.1.0, SVG Export Plug-In . SVG Version: 6.00 Build 0)  -->
<svg version="1.1" id="圖層_1" xmlns="http://www.w3.org/2000/svg" xmlns:xlink="http://www.w3.org/1999/xlink" x="0px" y="0px"
	 viewBox="0 0 139 139" style="enable-background:new 0 0 139 139;" xml:space="preserve">
<style type="text/css">
	.st0{enable-background:new    ;}
	.st1{fill:#FFFFFF;}
</style>
<g id="圖層_1_1_">
</g>
<title>アセット 7</title>
<g class="st0">
	<path class="st1" d="M36.7,20.2c1.3,0,2.1,0.2,2.7,0.5c1,0.5,1.5,1.3,1.5,2.4c0,1-0.6,2.6-2,4.7c-0.5,0.8-0.9,1.5-1.3,2.2h27
		c1.1,0,1.9,0.2,2.4,0.7c0.5,0.4,0.7,1.2,0.7,2.4c0,0.9-0.2,1.7-0.6,2.1c-0.6,0.7-1.4,1-2.5,1H56c-0.7,4.7-2.5,8.5-5.4,11.6
		c-0.7,0.8-1.6,1.6-2.4,2.3c7.3,2.6,12.3,4.4,15,5.6c1.4,0.9,2.1,1.9,2.2,3.1c-0.1,1-0.3,1.7-0.8,2.1c-0.7,0.8-1.7,1.2-3.1,1.2
		c-1.2,0-2.4-0.3-3.7-0.8C52.5,59,47,56.7,41.3,54.5c-4.3,2.3-9.7,4.4-16,6.2c-3.1,0.9-5.9,1.4-8.5,1.4c-1,0-1.9-0.4-2.6-1.1
		c-0.5-0.6-0.8-1.3-1-2.2c0-0.9,0.3-1.6,1-2.1c7.6-1.9,13.7-3.7,18.4-5.4c-1.7-0.7-3.4-1.3-5-1.8c-3.9-1.3-5.9-2.8-5.9-4.7
		c0-0.5,0.4-1.4,1.1-2.7c1.3-2,2.5-4.1,3.6-6H16.4c-1,0-1.8-0.3-2.4-0.8c-0.5-0.4-0.8-1.2-0.8-2.4c0-1,0.3-1.8,0.8-2.4
		c0.6-0.5,1.3-0.7,2.4-0.7H30c1.5-2.8,3-5.4,4.3-8c0.1-0.5,0.5-0.9,1.1-1.4C35.9,20.3,36.3,20.2,36.7,20.2z M40.3,7
		c1.2,0,2,0.2,2.5,0.7c0.7,0.6,1,1.4,1,2.4v2.4h17.5c3,0,4.5,1.7,4.5,5v7.1c0,1.1-0.3,1.9-0.8,2.3c-0.6,0.5-1.5,0.8-2.5,0.8
		c-1.3,0-2.3-0.3-2.8-0.9c-0.4-0.5-0.6-1.2-0.6-2.2v-5.4c0-0.5-0.3-0.7-0.9-0.7H22.3c-0.5,0-0.7,0.2-0.7,0.7v5.4
		c0,1.2-0.2,2-0.7,2.4c-0.5,0.5-1.4,0.7-2.7,0.7c-1.1,0-2-0.2-2.5-0.7c-0.5-0.4-0.8-1.2-0.8-2.4v-7.1c0-3.3,1.5-5,4.5-5h17.3v-2.4
		c0-0.8,0.3-1.6,0.9-2.4C38.1,7.2,39,7,40.3,7z M49,36.1H34.1c-2.5,4.3-3.8,6.7-3.8,7.3c0,0.5,0.4,0.8,1.1,1.1
		c3.3,1.1,6.4,2.1,9.2,3c0.2-0.2,0.5-0.3,0.7-0.5C45.4,44.7,48,41,49,36.1z"/>
	<path class="st1" d="M76.1,18.9h4.1V9.4c0-1.7,1.1-2.5,3-2.6c2,0,3,0.9,3.1,2.6v9.5h2.6c1,0,1.7,0.2,2.1,0.5
		c0.5,0.3,0.8,1.1,0.8,2.3c0,1-0.1,1.7-0.4,2.1c-0.5,0.6-1.3,0.9-2.4,0.9h-2.6v10.8c0.4-0.2,0.8-0.5,1.2-0.7c0.5-0.4,1-0.6,1.4-0.6
		c1,0,1.7,0.2,2.2,0.7c0.6,0.6,0.9,1.4,0.9,2.3c-0.1,0.7-0.4,1.4-1,2c-1.2,1-2.8,2.1-4.7,3.1v14.6c0,1.6-0.4,2.7-1.1,3.4
		c-0.9,0.8-2.1,1.3-3.6,1.5h-3.3c-1.2-0.1-2.2-0.6-2.8-1.3c-0.4-0.4-0.6-1-0.6-1.8c0-1.1,0.2-1.8,0.6-2.3c0.4-0.6,1.1-0.9,2.2-1.1
		h1.6c0.7,0,1-0.3,1-0.7v-9.7c-1.4,0.5-2.6,0.7-3.6,0.7c-2.1-0.1-3.2-1.1-3.3-3.1c0-1.5,0.7-2.5,2.2-2.8c1.7-0.5,3.3-1,4.7-1.5V24.7
		h-4.1c-0.8,0-1.5-0.2-2-0.6c-0.6-0.4-0.8-1.2-0.8-2.4c0-1.1,0.3-1.9,0.8-2.4C74.5,19,75.1,18.9,76.1,18.9z M104.3,7.2
		c1,0,1.7,0.2,2.2,0.6c0.6,0.4,0.9,1,0.9,1.8V37c-0.1,2.6-0.3,4.9-0.5,7c-0.4,3-1.1,5.5-2.1,7.7c-1.8,3.8-3.8,6.8-6.1,8.9
		c-0.8,0.7-1.7,1-2.6,1c-0.6,0-1.2-0.3-1.9-0.9c-0.6-0.7-0.9-1.4-0.9-2.1c0-0.6,0.1-1.1,0.4-1.4c0.1-0.3,0.5-0.9,1.4-1.9
		c2.1-2.4,3.6-4.8,4.7-7.4c-0.6,0.2-1.1,0.4-1.7,0.5c-2.6,0.9-4.3,1.3-5.3,1.3c-2,0-3-1.2-3.1-3.5c0.2-1.5,1.2-2.4,3.1-2.6
		c3.3-0.5,6.1-1.1,8.5-2c0.2-1.5,0.2-2.9,0.2-4.4v-1.7h-5.7c-0.9,0-1.7-0.2-2.1-0.7c-0.4-0.4-0.7-1.2-0.7-2.4c0-1,0.3-1.8,0.8-2.3
		c0.5-0.4,1.2-0.5,2-0.5h5.7v-7.7h-6.6c-1,0-1.7-0.3-2.1-0.8c-0.5-0.4-0.7-1.2-0.7-2.3c0-1.1,0.3-1.9,0.8-2.4c0.4-0.3,1.1-0.5,2-0.5
		h6.6V9.6c0-0.6,0.3-1.2,0.7-1.7C102.5,7.5,103.3,7.3,104.3,7.2z M115.2,7.2c0.9,0,1.6,0.2,2.2,0.7c0.6,0.6,0.9,1.3,0.9,2.1v5.7h6.6
		c1,0,1.7,0.2,2.1,0.6c0.5,0.4,0.8,1.1,0.8,2.2c0,0.9-0.2,1.6-0.5,2c-0.4,0.7-1.2,1.1-2.3,1.1h-6.6v7.7h5.9c1.1,0,1.8,0.2,2.1,0.6
		c0.5,0.4,0.7,1.1,0.7,2.2c0,0.9-0.2,1.6-0.5,2.1c-0.4,0.7-1.2,1-2.4,1h-5.9v8.1h6.9c1,0,1.7,0.2,2.1,0.6c0.5,0.4,0.8,1.1,0.8,2.2
		c0,0.9-0.2,1.6-0.5,2c-0.5,0.7-1.3,1.1-2.4,1.1h-6.9v9.7c0,0.7-0.2,1.3-0.6,1.8c-0.6,0.7-1.4,1.1-2.5,1.1c-0.9,0-1.7-0.3-2.2-1
		c-0.4-0.5-0.6-1.1-0.6-1.8v-49c0-0.9,0.3-1.6,0.8-2.1C113.6,7.5,114.3,7.2,115.2,7.2z"/>
</g>
<g class="st0">
	<path class="st1" d="M49.8,88.9h17.5v-6.2c0-0.8,0.3-1.5,0.9-2.2c0.4-0.4,1.2-0.6,2.4-0.6c1.2,0,2,0.2,2.5,0.6c0.7,0.6,1,1.3,1,2.2
		v6.2h17.5c1.1,0,2,0.2,2.4,0.6c0.5,0.4,0.7,1.2,0.7,2.4c0,1-0.2,1.7-0.6,2.2c-0.6,0.7-1.4,1-2.5,1H74.1v10.2h20.9
		c1.1,0,1.9,0.2,2.4,0.7c0.5,0.4,0.7,1.2,0.7,2.4c0,1-0.2,1.7-0.6,2.2c-0.6,0.7-1.4,1.1-2.5,1.1h-28l-6.4,14.1
		c9-0.4,17.1-1.1,24.5-2.4c-1.2-1.8-2.5-3.5-3.7-5.1c-0.8-1.1-1.2-2-1.2-2.6c0-0.8,0.4-1.5,1.1-2.1c0.7-0.5,1.5-0.8,2.4-0.8
		c0.9,0,1.7,0.4,2.4,1.2c3.6,4.7,6.8,9.4,9.4,13.9c0.7,1.1,1.1,2.1,1.2,3.1c0,1.1-0.3,1.8-1,2.3c-0.6,0.6-1.4,0.9-2.5,1
		c-1.3,0-2.1-0.7-2.6-2c-0.7-1.2-1.4-2.4-2.1-3.6c-4.7,1-9.5,1.8-14.5,2.3c-8.2,1-16.8,1.5-25.9,1.5c-1.3,0-2.2-0.2-2.7-0.7
		c-0.6-0.6-0.9-1.4-0.9-2.6c0-0.9,0.2-1.7,0.5-2.3c0.5-0.7,1.5-1,3-1c1.9,0,3.6,0,5.4-0.1l6.6-14.4H46.4c-1,0-1.8-0.3-2.4-0.8
		c-0.5-0.5-0.7-1.4-0.7-2.5c0-1.1,0.2-1.9,0.7-2.4c0.6-0.5,1.4-0.7,2.4-0.7h20.9V95.2H49.8c-1.1,0-1.9-0.3-2.4-0.8
		c-0.5-0.4-0.7-1.3-0.7-2.5c0-1.1,0.2-1.9,0.7-2.4C47.9,89.1,48.7,88.9,49.8,88.9z"/>
</g>
</svg>
